<?xml version="1.0" encoding="UTF-8"?><svg id="Layer_2" xmlns="http://www.w3.org/2000/svg" width="500" height="499.11994" viewBox="0 0 500 499.11994"><defs><style>.cls-1{fill:#fff;}</style></defs><g id="Layer_1_copy_5"><path class="cls-1" d="M247.12918.0164c198.08872-2.20427,320.76503,218.22429,212.54543,385.30893-101.48754,156.69074-334.29696,150.44247-426.64138-11.80945C-61.258,207.84335,57.55474,2.12593,247.12918.0164ZM295.96066,45.16422C189.7285,22.52702,83.58857,83.23931,50.53965,186.34094c-4.82605,15.05569-7.70243,30.6048-9.47859,46.3161h128.29947c2.13-5.54701,3.41759-11.36098,5.8492-16.80854,16.5045-36.97516,58.68542-55.9089,97.64895-44.77279,28.61421,8.17818,50.83927,32.48846,57.16481,61.50702,25.64299.11969,51.31538.09645,76.96011.0743,18.11743-.01565,36.25864.01424,54.37603-.00309-7.86694-91.59367-75.61429-168.35735-165.39897-187.48973ZM244.86359,201.66872c-38.41316,3.72482-56.72771,50.02693-31.5884,79.40396,23.46447,27.41987,68.55252,20.11229,81.56559-13.56636,13.09069-33.87954-13.94774-69.33128-49.97718-65.8376ZM298.22644,453.00359c86.63404-19.43789,153.70383-97.74718,160.30627-186.3625l-128.58543.56901c-6.23313,28.99178-28.4027,52.9425-56.91775,61.18574-46.40398,13.41464-93.17347-15.13699-103.38578-61.75218H38.79529c4.71722,68.77041,46.55792,131.88049,106.11074,165.49894,41.13359,23.22052,88.51856,31.57256,135.38327,24.73193,5.11731-.74695,13.39886-1.81251,17.93714-3.87094Z"/><path d="M329.9473,267.21008l128.58539-.56897c-6.60242,88.6153-73.67224,166.92456-160.30627,186.36249-4.53827,2.05841-12.81982,3.12396-17.93713,3.87091-46.86469,6.84064-94.24969-1.51141-135.38324-24.73193-59.55286-33.61841-101.39355-96.72852-106.11078-165.4989h130.84851c10.21228,46.61517,56.98175,75.16681,103.38574,61.75214,28.51508-8.24323,50.68463-32.19391,56.91779-61.18573ZM175.20976,215.84851c16.50446-36.97516,58.68542-55.90887,97.64893-44.77277,28.6142,8.17816,50.83929,32.4884,57.16479,61.50702,25.64301.11969,51.31537.09644,76.96014.07428,18.11743-.01562,36.25861.01422,54.37604-.00311-7.86694-91.59363-75.61432-168.3573-165.39899-187.48969C189.72849,22.52703,83.58854,83.23931,50.53965,186.34094c-4.82605,15.05566-7.70245,30.6048-9.47858,46.3161h128.29944c2.13-5.547,3.4176-11.36096,5.84924-16.80853ZM244.86356,201.6687c-38.41315,3.72485-56.72766,50.02698-31.58838,79.40399,23.46448,27.41986,68.55249,20.1123,81.56561-13.56635,13.0907-33.87958-13.94775-69.3313-49.97723-65.83765Z"/></g></svg>