<?xml version="1.0" encoding="UTF-8"?><svg id="Layer_2" xmlns="http://www.w3.org/2000/svg" width="500" height="499.11994" xmlns:xlink="http://www.w3.org/1999/xlink" viewBox="0 0 500 499.11994"><defs><style>.cls-1{fill:url(#radial-gradient);}.cls-2{fill:#8aa1aa;}.cls-3{fill:#4d6773;}.cls-4{fill:#30444d;}.cls-5{fill:#c3e2ee;}</style><radialGradient id="radial-gradient" cx="249.95848" cy="249.64739" fx="249.95848" fy="249.64739" r="57.35418" gradientUnits="userSpaceOnUse"><stop offset="0" stop-color="#c3e2ee"/><stop offset=".36396" stop-color="#c1e0ec"/><stop offset=".49506" stop-color="#bad9e5"/><stop offset=".58853" stop-color="#afcdd9"/><stop offset=".66412" stop-color="#9fbcc8"/><stop offset=".72883" stop-color="#8aa6b2"/><stop offset=".78614" stop-color="#6f8b97"/><stop offset=".83671" stop-color="#516b77"/><stop offset=".84361" stop-color="#4d6773"/></radialGradient></defs><g id="Layer_1_copy_3"><path d="M247.12918.0164c198.08872-2.20427,320.76503,218.22429,212.54543,385.30893-101.48754,156.69074-334.29696,150.44247-426.64138-11.80945C-61.258,207.84335,57.55474,2.12593,247.12918.0164ZM295.96066,45.16422C189.7285,22.52702,83.58857,83.23931,50.53965,186.34094c-4.82605,15.05569-7.70243,30.6048-9.47859,46.3161h128.29947c2.13-5.54701,3.41759-11.36098,5.8492-16.80854,16.5045-36.97516,58.68542-55.9089,97.64895-44.77279,28.61421,8.17818,50.83927,32.48846,57.16481,61.50702,25.64299.11969,51.31538.09645,76.96011.0743,18.11743-.01565,36.25864.01424,54.37603-.00309-7.86694-91.59367-75.61429-168.35735-165.39897-187.48973ZM244.86359,201.66872c-38.41316,3.72482-56.72771,50.02693-31.5884,79.40396,23.46447,27.41987,68.55252,20.11229,81.56559-13.56636,13.09069-33.87954-13.94774-69.33128-49.97718-65.8376ZM298.22644,453.00359c86.63404-19.43789,153.70383-97.74718,160.30627-186.3625l-128.58543.56901c-6.23313,28.99178-28.4027,52.9425-56.91775,61.18574-46.40398,13.41464-93.17347-15.13699-103.38578-61.75218H38.79529c4.71722,68.77041,46.55792,131.88049,106.11074,165.49894,41.13359,23.22052,88.51856,31.57256,135.38327,24.73193,5.11731-.74695,13.39886-1.81251,17.93714-3.87094Z"/><path class="cls-5" d="M298.22644,453.00359c-4.53828,2.05843-12.81983,3.12399-17.93714,3.87094-46.8647,6.84063-94.24968-1.51141-135.38327-24.73193-59.55283-33.61845-101.39353-96.72853-106.11074-165.49894h130.84846c10.21232,46.61519,56.98181,75.16682,103.38578,61.75218,28.51505-8.24324,50.68461-32.19395,56.91775-61.18574l77.036.00554c-1.15624,9.47648-1.95328,19.00095-3.57669,28.42151-9.94404,57.70472-41.31038,113.9603-89.70798,147.63187-4.23276,2.94485-10.95464,7.68555-15.47217,9.73457Z"/><path class="cls-3" d="M295.96066,45.16422c62.21951,34.23821,100.25461,100.78532,109.24317,170.29673.73863,5.71207.87913,11.5109,1.77977,17.19609-25.64473.02215-51.31712.04539-76.96011-.0743-6.32554-29.01856-28.5506-53.32884-57.16481-61.50702-38.96353-11.13611-81.14446,7.79762-97.64895,44.77279-2.43161,5.44756-3.7192,11.26153-5.8492,16.80854H41.06106c1.77616-15.71131,4.65253-31.26042,9.47859-46.3161C83.58857,83.23931,189.7285,22.52702,295.96066,45.16422Z"/><path class="cls-4" d="M295.96066,45.16422c89.78467,19.13238,157.53203,95.89606,165.39897,187.48973-18.11739.01734-36.2586-.01255-54.37603.00309-.90064-5.68519-1.04114-11.48402-1.77977-17.19609-8.98856-69.51141-47.02366-136.05852-109.24317-170.29673Z"/><path class="cls-2" d="M329.94728,267.2101l128.58543-.56901c-6.60244,88.61532-73.67223,166.92461-160.30627,186.3625,4.51753-2.04901,11.23941-6.78972,15.47217-9.73457,48.3976-33.67157,79.76394-89.92715,89.70798-147.63187,1.62341-9.42056,2.42045-18.94503,3.57669-28.42151l-77.036-.00554Z"/><path class="cls-1" d="M244.86359,201.66872c36.02944-3.49368,63.06788,31.95806,49.97718,65.8376-13.01307,33.67865-58.10111,40.98623-81.56559,13.56636-25.1393-29.37703-6.82476-75.67914,31.5884-79.40396Z"/></g></svg>