<?xml version="1.0" encoding="UTF-8"?><svg id="Layer_2" xmlns="http://www.w3.org/2000/svg" width="400" height="312.81971" xmlns:xlink="http://www.w3.org/1999/xlink" viewBox="0 0 400 312.81971"><defs><style>.cls-1{fill:url(#radial-gradient);}.cls-2{fill:#85723e;}</style><radialGradient id="radial-gradient" cx="200.92614" cy="169.46779" fx="200.92614" fy="169.46779" r="202.00086" gradientUnits="userSpaceOnUse"><stop offset="0" stop-color="#e1c47e"/><stop offset=".16343" stop-color="#ddc07b"/><stop offset=".30619" stop-color="#d2b774"/><stop offset=".44125" stop-color="#c0a767"/><stop offset=".57153" stop-color="#a79056"/><stop offset=".69737" stop-color="#87743f"/><stop offset=".70594" stop-color="#85723e"/></radialGradient></defs><g id="Round_1"><g id="Layer_1_copy_2"><path d="M155.16531,8.25928c3.54883,3.51883,6.67344,8.85678,8.0909,13.65616,9.72418.28892,18.90965.85291,28.43228,3.00752,42.96247,9.72079,82.32604,45.84896,96.92384,87.14976,34.17868-2.07795,68.48588,16.63089,87.85732,44.22306,24.37093,5.40091,32.59634,37.60542,11.24585,52.40409-22.81288,15.8123-52.88806-4.92441-44.97656-31.72524-6.58681,5.36415-11.95292,12.55544-16.37398,19.80486-8.30303,13.61487-14.13578,28.66778-17.91156,44.17272-2.16404,8.88644-4.06999,15.96568-2.82558,25.13771,1.00231,7.38757,3.09452,16.05251,5.28279,23.18898,1.28523,4.19145,5.35568,12.38583,4.76937,16.23207-.57951,3.80163-3.83219,6.58001-7.57052,7.0648-4.54686.58964-14.57262-3.8509-19.54308-5.30248-60.03958-17.53409-118.0507-16.24272-177.94711.79047-4.51449,1.28382-9.33456,3.39466-13.83682,4.35355-3.55017.75611-7.04884.62721-9.89861-1.97301-5.96873-5.44604-.61117-13.71456,1.30012-20.07055,2.53046-8.41501,5.17263-19.49617,5.77472-28.23192.44407-6.44311-4.46736-22.15907-6.56467-28.92331-6.05925-19.54225-15.40944-39.55558-29.7604-54.26683,3.70755,15.94969-6.77712,31.8302-22.85837,34.6823-26.07139,4.6239-45.01025-24.76539-28.71761-46.11702,2.76472-3.62319,8.75431-8.8223,13.12681-10.20401.96996-.30651,3.23033-.39937,3.56503-.58998.25374-.1445,2.57699-4.02139,3.25561-4.84827,23.39802-28.50973,65.25871-48.84106,101.965-35.43197,4.07044-6.69664,8.77701-13.14113,11.12729-20.72461,3.97788-12.83514,2.97685-27.45853.76688-40.5234-6.95783,1.98035-13.70454,1.61828-20.15865-1.78741-15.83671-8.35669-19.17084-29.79502-7.70753-43.31379,10.75095-12.67869,31.35067-13.5509,43.16723-1.83423ZM143.30094,38.03512c13.14707-13.14703-7.18941-33.17568-20.43475-19.44615-12.81574,13.28422,7.42525,32.45561,20.43475,19.44615ZM273.93783,113.70147c.67863-.70244-6.73903-13.37149-7.74643-14.99094-23.60355-37.94425-68.37078-66.83789-114.44695-60.13716,5.10547,24.61717,9.11698,51.13957-3.49109,74.20956-.68725,1.25751-5.73662,8.62961-5.20877,9.22142.50782-.01077.99452.1026,1.45497.31532,15.59646,7.20552,29.38284,17.6189,41.65889,29.53379l13.64481,15.62115,6.52318-8.48183c17.35084-21.21505,40.05243-39.82896,67.61137-45.29131ZM292.12157,247.36258c5.76174-29.66961,17.01136-60.61314,39.93878-81.2683,6.32193-5.69538,13.22477-9.90286,20.95598-13.43941-12.17861-10.68077-26.42214-20.18757-42.37279-24.0535-46.08474-11.16949-88.0806,24.84561-107.95504,63.13405-6.39597,12.32195-10.35678,25.58646-12.98761,39.21106,22.6191-.62931,45.48315.76069,67.63183,5.53661,11.92378,2.57112,23.53222,6.24875,34.78886,10.87949ZM174.61172,231.87574c2.9296-17.4364,8.18062-34.37402,16.5383-49.95578-2.73096-3.8898-5.63244-7.69112-8.7533-11.27798-19.38617-22.28084-54.56485-46.39573-85.41635-43.09334-18.99786,2.03356-37.45714,12.2224-50.81108,25.50168,36.04341,17.15342,52.63914,58.40644,59.71476,95.49225,22.10398-8.46754,45.13888-14.06756,68.72768-16.66683ZM38.90444,195.02532c13.14707-13.14703-7.18941-33.17568-20.43475-19.44615-12.81574,13.28422,7.42525,32.45561,20.43475,19.44615ZM369.56095,171.14764c-18.02375,1.043-17.11047,29.35259,2.24162,27.96287,18.05828-1.2968,16.85784-29.06813-2.24162-27.96287ZM296.86756,294.8159c-2.43924-10.34101-5.15788-20.66287-5.59398-31.37573-.32824-1.00382-8.85317-4.04424-10.4099-4.61687-49.03134-18.03569-116.49801-16.20299-165.30885,1.97777-1.22116.45485-7.42738,2.73266-7.64198,3.43038-.9933,10.77286-3.28819,21.42797-6.38914,31.76688,15.85875-5.16829,32.08477-9.3306,48.56591-12.13027,43.85877-7.45033,88.97963-5.16402,131.92204,6.23346,4.94241,1.31178,10.20437,2.6924,14.85591,4.71438Z"/><path class="cls-1" d="M292.12157,247.36258c-11.25664-4.63074-22.86508-8.30837-34.78886-10.87949-22.14868-4.77591-45.01273-6.16591-67.63183-5.53661,2.63082-13.6246,6.59164-26.88911,12.98761-39.21106,19.87443-38.28843,61.8703-74.30354,107.95504-63.13405,15.95065,3.86594,30.19418,13.37274,42.37279,24.0535-7.7312,3.53655-14.63405,7.74403-20.95598,13.43941-22.92742,20.65516-34.17703,51.59869-39.93878,81.2683ZM191.15002,181.91995c-2.73096-3.8898-5.63244-7.69112-8.7533-11.27798-19.38617-22.28084-54.56485-46.39573-85.41635-43.09334-18.99786,2.03356-37.45714,12.2224-50.81108,25.50168,36.04341,17.15342,52.63914,58.40644,59.71476,95.49225,22.10398-8.46754,45.13888-14.06756,68.72768-16.66683,2.9296-17.4364,8.18062-34.37402,16.5383-49.95578ZM266.1914,98.71053c-23.60355-37.94425-68.37078-66.83789-114.44695-60.13716,5.10547,24.61717,9.11698,51.13957-3.49109,74.20956-.68725,1.25751-5.73662,8.62961-5.20877,9.22142.50782-.01077.99452.1026,1.45497.31532,15.59646,7.20552,29.38284,17.6189,41.65889,29.53379l13.64481,15.62115,6.52318-8.48183c17.35084-21.21505,40.05243-39.82896,67.61137-45.29131.67863-.70244-6.73903-13.37149-7.74643-14.99094ZM291.27359,263.44017c-.32824-1.00382-8.85317-4.04424-10.4099-4.61687-49.03134-18.03569-116.49801-16.20299-165.30885,1.97777-1.22116.45485-7.42738,2.73266-7.64198,3.43038-.9933,10.77286-3.28819,21.42797-6.38914,31.76688,15.85875-5.16829,32.08477-9.3306,48.56591-12.13027,43.85877-7.45033,88.97963-5.16402,131.92204,6.23346,4.94241,1.31178,10.20437,2.6924,14.85591,4.71438-2.43924-10.34101-5.15788-20.66287-5.59398-31.37573Z"/><path class="cls-2" d="M143.30094,38.03512c-13.0095,13.00946-33.25049-6.16193-20.43475-19.44615,13.24534-13.72953,33.58183,6.29912,20.43475,19.44615Z"/><path class="cls-2" d="M18.46969,175.57917c-12.81574,13.28422,7.42525,32.45561,20.43475,19.44615,13.14707-13.14703-7.18941-33.17568-20.43475-19.44615Z"/><path class="cls-2" d="M371.80257,199.11052c18.05828-1.2968,16.85784-29.06813-2.24162-27.96287-18.02375,1.043-17.11047,29.35259,2.24162,27.96287Z"/></g></g></svg>