<?xml version="1.0" encoding="UTF-8"?><svg id="Layer_2" xmlns="http://www.w3.org/2000/svg" width="483.18448" height="482.03602" viewBox="0 0 483.18448 482.03602"><defs><style>.cls-1{fill:#fff;}</style></defs><g id="Layer_1-2"><path class="cls-1" d="M406.59592,472.99l-1.14862,8.8654-210.3986.18062C72.95963,469.79068-20.48339,356.99083,3.88533,233.79054c10.97755-55.4989,35.88997-112.0086,74.20931-153.79062,1.08159,12.73091-2.01935,25.68697-2.54613,38.45381-4.88584,118.41097,55.79507,234.66325,155.12592,297.95655,52.81321,33.65241,113.77484,50.35737,175.92148,56.57973ZM351.58491,472.00494c-136.20817-23.27897-246.03947-130.30998-275.68422-264.82091-7.26104-32.94645-9.21032-63.02942-7.26332-96.6402.07705-1.33014.71579-6.25241-1.03467-6.54106-25.29246,36.54089-43.66051,77.4988-53.52644,120.9787-6.90879,30.44757-9.7163,53.21122-3.20932,84.23632,18.0462,86.04384,90.73771,153.15334,178.18435,163.81565l159.04873-.03863,3.48489-.98987ZM255.58948,1.00496c-11.02266,11.93426-24.46978,20.84313-35.51386,32.97587-62.45157,68.60769-75.34685,165.94147-45.23291,252.26118,7.97874,22.87055,16.32848,49.39464,27.22542,70.77458,2.28384,4.48092,16.11451,25.88304,16.39717,27.70842.38112,2.46123-2.91802,5.51357-5.2293,6.18812C115.4808,315.99246,66.52793,185.73913,93.53146,64.43666,137.47718,23.81714,195.41651.97001,255.58948,1.00496ZM232.58473,11.00512c-14.4648.03325-29.85923,3.65717-43.75923,7.72559-32.68216,9.5658-62.28594,26.88019-87.66328,49.33672-23.80776,106.7748,14.8521,222.93423,93.94121,296.91897,1.37106.30396,1.88841-.06874,1.47138-1.47139-.71483-2.4043-3.88785-6.99157-5.16123-9.84387-10.09617-22.61493-20.26912-51.4317-27.84341-75.15659-27.18562-85.15327-10.13874-181.56249,49.50565-248.53352l19.50891-18.9759ZM280.63697,3.95141c60.01587,10.60266,118.88039,38.96552,157.9256,86.57075.75118.91586,4.74901,5.78023,4.02167,6.46808-74.64002-28.89687-157.42079-3.44633-208.50871,55.9905-14.54013,16.91632-37.56463,44.99936-45.95296,65.04704-2.95064,7.05188-5.24514,14.33477-6.63169,21.86511l-7.96769-.33143C155.62953,146.94864,197.19623,46.43345,280.09474,0l.54223,3.95141ZM419.58899,81.9855c-37.24828-38.93329-90.23103-61.73661-142.95438-70.48578-69.74357,42.53875-106.24847,126.93609-98.03481,207.49034l17.17495-30.31011c16.75121-19.07042,30.0163-40.92561,48.80107-58.19893,46.1601-42.44601,113.04733-64.13505,175.01317-48.49552ZM469.69218,292.88863c-16.89868-68.14225-77.65431-123.49176-146.0683-137.42779-14.52701-2.95917-37.06062-6.57076-51.57278-5.50446-8.60886.63255-16.85593,4.18302-25.45642,4.54345,12.53838-11.56242,25.07096-23.35218,39.68689-32.31304,42.08003-25.79881,91.46141-34.19234,139.07495-19.45859,7.31315,2.26302,23.69207,8.15041,29.19331,12.80669,6.28725,5.32157,16.37612,35.35332,18.75586,44.24414,11.30055,42.21942,12.90168,89.41411,4.82511,132.25737l-8.43862.85223ZM449.32282,121.26195c-55.6987-29.97355-128.53137-20.39546-175.73279,20.72301,39.40259.60758,78.9646,9.19085,112.91932,29.59042,38.58607,23.18203,70.4156,59.87263,85.57537,102.41462,1.72001-2.70509,2.2816-8.3043,2.49548-11.5046,2.52907-37.84316-1.49384-84.98741-15.52174-120.45912-2.81073-7.10736-6.49702-13.8675-9.73563-20.76432ZM324.59005,420.98495c7.86309-7.69052,16.38257-14.58558,23.51433-22.97536,34.1064-40.12268,43.84764-98.69799,31.19437-149.22363-3.67317-14.66731-19.31707-57.98532-31.01503-66.47656-1.14262-.8294-3.26902-.9927-4.69177-1.32652l7.3145-6.86155c6.84275,4.09003,14.38864,6.84407,21.35453,10.7024,44.53826,24.66929,79.93966,70.67833,90.03321,120.96679,1.23303,6.14323,3.82968,20.01928,3.34745,25.70113-.29287,3.45068-5.02562,11.69766-6.88066,15.17455-18.55748,34.78199-50.83489,60.11731-88.95501,70.04499-14.96788,3.89811-29.77866,6.27085-45.21592,4.27377ZM345.58984,412.9848c49.95615-4.17115,92.8189-36.76351,111.99203-82.58409-3.31087-48.77772-29.63729-96.19177-68.65879-125.23907-4.05582-3.01912-17.95368-12.94577-21.85239-14.15272-1.33036-.41185-1.86297.134-1.46599,1.46599,1.30317,4.37266,6.40339,11.58584,8.47015,16.53495,18.66943,44.70628,24.72679,86.99742,11.43447,134.40467-7.46505,26.62422-21.2557,49.42427-39.91949,69.57026ZM279.59494,324.0053l10.21218,4.27227c9.79117,2.36854,19.11253,3.25394,29.10764,1.67848l2.50131,7.86516c-24.13441,17.48169-52.86316,28.60966-83.13981,22.98724l-1.19465-.80535c-16.93335-33.46918-14.88464-70.05166,3.71002-102.30629,13.94546-24.19005,45.4285-42.04208,69.80844-20.21217,29.24744,26.18828,5.90013,81.90385-31.00512,86.52065ZM254.59542,313.99973c19.06223,5.6701,37.11895,2.30742,49.97257-13.52652,34.53081-42.53735-15.9425-91.23993-50.95644-47.95644-20.89265,25.82706-27.69392,72.64589-9.36244,101.31884,21.76903,2.21121,41.36469-4.04325,60.33323-13.8532.29583-1.20038-1.05171-1.31558-1.94527-1.5192-18.59646-4.23773-24.8659-3.27125-40.52004-16.49579l-7.52162-7.96768ZM122.46928,473.12466c.63441,1.01213-.60586,9.22645-3.36745,8.88241l-72.08197-.9422C22.04638,445.7161,6.29894,404.03111.66202,361.06317l6.96511-1.64073c23.62496,49.81224,63.808,92.00791,114.84214,113.70222ZM50.58976,472.99496h52l-29.91465-19.58535c-22.64427-16.33322-37.89864-36.73374-54.47653-58.52337-.8584-1.12826-1.27567-3.06954-3.09911-2.90093,6.36637,29.1083,19.89543,55.91347,35.49029,81.00965ZM374.5893,292.00477c-1.58183,7.50131-1.13845,15.60464-2.12774,23.362-3.45727,27.10979-16.41481,57.06957-34.35757,77.64243-3.89278,4.4634-25.08104,24.89395-29.61288,24.51296-25.48887-7.08104-47.40554-22.80172-62.89476-44.03372,45.82102,1.7026,85.7421-21.85311,111.40197-58.58491,4.64164-6.64446,8.27804-16.47473,14.58481-21.41486,1.0043-.78667,1.2774-1.93852,3.00617-1.48389ZM262.5921,381.00703c10.21189,10.85025,28.41026,24.06734,43.01482,27.55647,3.82754.91442,11.8405-6.297,14.99708-9.0543,21.70212-18.957,37.63453-49.13142,41.9756-77.51415-8.60731,9.26517-16.2876,19.31972-25.9784,27.51135-20.86544,17.63753-46.71376,28.99302-74.00909,31.50063Z"/><path d="M351.58491,472.00494l-3.48489.98987-159.04873.03863c-87.44664-10.66231-160.13815-77.77181-178.18435-163.81565-6.50698-31.0251-3.69947-53.78875,3.20932-84.23632,9.86593-43.4799,28.23398-84.4378,53.52644-120.9787,1.75047.28866,1.11173,5.21093,1.03467,6.54106-1.947,33.61077.00228,63.69375,7.26332,96.6402,29.64474,134.51093,139.47605,241.54195,275.68422,264.82091ZM188.8255,18.73071c-32.68216,9.5658-62.28594,26.88019-87.66328,49.33672-23.80776,106.7748,14.8521,222.93423,93.94121,296.91897,1.37106.30396,1.88841-.06874,1.47138-1.47139-.71483-2.4043-3.88785-6.99157-5.16123-9.84387-10.09617-22.61493-20.26912-51.4317-27.84341-75.15659-27.18562-85.15327-10.13874-181.56249,49.50565-248.53352l19.50891-18.9759c-14.4648.03325-29.85923,3.65717-43.75923,7.72559ZM276.63461,11.49972c-69.74357,42.53875-106.24847,126.93609-98.03481,207.49034l17.17495-30.31011c16.75121-19.07042,30.0163-40.92561,48.80107-58.19893,46.1601-42.44601,113.04733-64.13505,175.01317-48.49552-37.24828-38.93329-90.23103-61.73661-142.95438-70.48578ZM273.59003,141.98496c39.40259.60758,78.9646,9.19085,112.91932,29.59042,38.58607,23.18203,70.4156,59.87263,85.57537,102.41462,1.72001-2.70509,2.2816-8.3043,2.49548-11.5046,2.52907-37.84316-1.49384-84.98741-15.52174-120.45912-2.81073-7.10736-6.49702-13.8675-9.73563-20.76432-55.6987-29.97355-128.53137-20.39546-175.73279,20.72301ZM457.58187,330.40071c-3.31087-48.77772-29.63729-96.19177-68.65879-125.23907-4.05582-3.01912-17.95368-12.94577-21.85239-14.15272-1.33036-.41185-1.86297.134-1.46599,1.46599,1.30317,4.37266,6.40339,11.58584,8.47015,16.53495,18.66943,44.70628,24.72679,86.99742,11.43447,134.40467-7.46505,26.62422-21.2557,49.42427-39.91949,69.57026,49.95615-4.17115,92.8189-36.76351,111.99203-82.58409ZM304.568,300.4732c34.53081-42.53735-15.9425-91.23993-50.95644-47.95644-20.89265,25.82706-27.69392,72.64589-9.36244,101.31884,21.76903,2.21121,41.36469-4.04325,60.33323-13.8532.29583-1.20038-1.05171-1.31558-1.94527-1.5192-18.59646-4.23773-24.8659-3.27125-40.52004-16.49579l-7.52162-7.96768c19.06223,5.6701,37.11895,2.30742,49.97257-13.52652ZM102.58976,472.99496l-29.91465-19.58535c-22.64427-16.33322-37.89864-36.73374-54.47653-58.52337-.8584-1.12826-1.27567-3.06954-3.09911-2.90093,6.36637,29.1083,19.89543,55.91347,35.49029,81.00965h52ZM305.60692,408.5635c3.82754.91442,11.8405-6.297,14.99708-9.0543,21.70212-18.957,37.63453-49.13142,41.9756-77.51415-8.60731,9.26517-16.2876,19.31972-25.9784,27.51135-20.86544,17.63753-46.71376,28.99302-74.00909,31.50063,10.21189,10.85025,28.41026,24.06734,43.01482,27.55647Z"/></g></svg>