<?xml version="1.0" encoding="UTF-8"?><svg id="Layer_2" xmlns="http://www.w3.org/2000/svg" width="622.07238" height="600.7408" xmlns:xlink="http://www.w3.org/1999/xlink" viewBox="0 0 622.07238 600.7408"><defs><style>.cls-1{fill:url(#linear-gradient);}</style><linearGradient id="linear-gradient" x1="422.12942" y1="566.43258" x2="191.9349" y2="39.65273" gradientUnits="userSpaceOnUse"><stop offset=".02099" stop-color="#b13626"/><stop offset=".10112" stop-color="#b63d25"/><stop offset=".22424" stop-color="#c65324"/><stop offset=".37416" stop-color="#df7621"/><stop offset=".4763" stop-color="#f39220"/><stop offset=".61415" stop-color="#d46722"/><stop offset=".74895" stop-color="#ba4325"/><stop offset=".8209" stop-color="#b13626"/></linearGradient></defs><g id="Layer_1-2"><path d="M511.30738,17.52192c24.28206,24.18478,28.95479,62.45753,39.01931,93.49187,11.62856,35.8571,31.79543,71.08222,45.59119,106.40881,19.16486,49.07517,36.89765,116.96226,18.25201,169.35684-8.17855,22.98187-25.38107,28.35191-38.30437,45.69566-15.27876,20.5049-6.74049,43.74241-12.20731,66.79266-1.169,4.92895-11.04331,17.44306-15.25476,20.70357-8.15315,6.31218-18.51422,9.3477-27.83386,12.20781-33.34907,10.23453-66.17812,16.99648-98.42811,32.57189-26.76336,12.92559-79.49952,48.21383-109.20336,31.65134-13.55213-7.5565-23.65853-29.75773-26.85654-44.14346-1.1022-4.95808.97589-15.78983-4.93997-17.06087-25.14864-5.40324-38.93937,30.74648-62.74166,32.81147-26.87219,2.33132-82.33323-21.73116-97.89122-44.13506-12.11932-17.45213-18.98159-38.61321-30.23877-55.8009-25.8177-39.41898-80.79287-65.51794-89.16807-113.83494-1.47501-8.50942-1.37401-41.84574-.26064-50.7878,1.86033-14.9413,26.25241-38.97497,35.82979-51.12358,10.79989-13.69934,22.46677-30.1239,28.73407-46.31256,2.06401-5.33142-.18182-9.01052,7.40349-12.59651,3.65145-1.72624,6.28091-.84314,9.03046-1.96954,35.32026-14.46951,49.76402-53.49428,81.28385-72.50191,14.7692-8.90638,24.92455-10.49774,42.25787-12.95637,7.79142-1.10517,8.47434,1.69242,15.96095-4.03905,22.17922-16.97961,19.22363-47.82167,40.00713-63.98918.72255-.56207,5.28623-3.39654,6.26244-3.95651,32.59193-18.69542,62.23038.04682,95.75411.03272,25.16713-.01059,44.0166-16.27986,65.79786-25.26549,4.73208-1.95217,17.88753-7.30308,22.15569-7.84431,22.54123-2.85839,43.72906.3992,59.98844,16.59343ZM433.86547,180.47501v-42c0-.66552,1.66644-3.76325,2.98535-2.49617,1.89439,1.81992.74966,21.14465,1.02469,25.48614,3.52496,55.64458,18.52408,103.87569,36.2792,155.7208,7.74872,22.62634,17.75007,58.93198,33.20006,76.79612,2.29025,2.64811,10.78792,10.54996,13.72314,11.36841,18.33445-2.09956,37.18222,1.85638,55.32943.66658,6.23634-.40888,12.20367-.49434,15.87193-6.12807,2.13297-3.27582,6.12054-14.56956,7.31039-18.68961,13.75653-47.63417-2.42334-119.25475-20.16855-164.27985-.9964-2.52816-.19114-5.26385-3.05582-6.92628-1.28955.86502-2.72979,3.52489-4.14948,3.77746-5.26297.93633-2.31664-3.84767-2.44602-6.18243-1.80661-32.60191-23.18658-45.97439-34.10126-71.91616-15.12987-35.96033-20.61252-136.30661-81.35696-119.75094-16.28742,4.43908-31.5247,20.97288-47.20323,27.79689-11.82281,5.14582-24.53664,4.32747-36.33805,7.68321-2.37736.67601-2.31776,3.19625-3.48805,3.53193-2.37066.67997-3.35907-1.90919-5.06141-2.81339-35.57235-18.89421-86.16808-19.94851-104.90595,21.80478-2.17391,5.07774-1.39463,21.09958-3.54958,24.45042-1.97359,3.06882-7.64163,2.79761-10.89701,4.10303-3.34401,1.34096-17.50528,12.33351-16.90043,15.85685l2.8955,4.62657c-9.37827,1.71291-4.26571,8.63829-4.00305,15.00861-1.19225,1.20004-9.73718-5.74318-11.73509-6.75465-30.69983-15.54215-70.274,2.28298-64.20005,40.20009.37078,2.31461,2.0059,3.76315,2.43829,5.56167,1.0354,4.30669,5.91168,22.08917,2.53332,24.55746l-3.81211-.80186c.1-5.00267-2.53948-8.59994-3.92998-12.54686-.8742-2.48141-2.95581-14.48405-6.62592-14.11077-1.09181.11105-9.74632,5.29551-11.76861,6.29471-7.5949,3.75257-17.62035,7.93911-24.81764,12.18236-4.42658,2.60975-22.04718,15.32865-24.7805,18.70841-6.35452,7.85737,4.35388,30.3897-5.31356,40.1972-.95519.96903-1.30545,1.89296-2.97595,1.51499-.81725-2.77454-.63925-5.79893-1.03154-8.48905-.19912-1.36544-.39539-3.02935-1.96058-1.50483-.72802,7.69761-4.49309,14.33869-8.99196,20.53144-2.6688,1.75229-5.32846-5.25413-8.0743-5.14388-1.94958.49367-9.74507,9.47872-11.3863,11.67102-26.94646,35.99433-27.213,96.5399,2.46765,131.40763,7.31347,8.5916,21.37545,18.97832,32.35724,21.72825,2.42734.60783,4.16081.3841,6.51054-.30285,1.21475-28.04309-18.64454-56.9718-13.65217-85.14977.29823-1.6833.85505-3.60179,2.25484-4.72587l2.53688,3.44315c22.31011,69.35818,19.42652,184.90837,106.69638,205.30338,15.84047,3.70193,42.581,5.42629,53.69902-8.83352,18.72716-24.01918-.09564-63.75236-10.92602-87.93948-11.15468-24.91137-21.98683-44.07964-28.79562-71.20438-5.55521-22.13073-12.17483-59.41361-13.69872-82.3021-.15147-2.275-.74608-12.01517,1.50263-12.48147,6.5372,1.75718.03177,8.18904,2.50348,12.99564l2.96279-.00013c1.88614-3.83686-.78947-6.6087-.92581-9.57499-.11101-2.41529.98696-11.76331,1.62446-14.24519,1.23475-4.80706,3.91491-9.22392,9.38703-6.74086,1.92223,1.30516.63821,32.7593.89181,38.10144,3.11799,65.68147,21.2824,126.76459,51.64949,184.35051,5.42462,10.28685,12.36973,19.84466,17.33903,30.39821,1.95507,2.43481,21.22045,5.45474,25.50785,5.75491,29.92438,2.09505,79.36522-4.56872,85.31535-40.78656,1.26712-7.71281-6.73707-24.68502-10.56361-31.96517-11.03806-21.0004-25.52965-40.3266-36.44378-61.55622-22.573-43.90792-40.48085-96.31425-49.99833-145.00168-1.33881-6.84881-5.31759-13.13635-2.75476-20.73488,3.77308,1.57275,2.36006,6.15026,3.45046,9.03919.8906,2.35959,6.71186,12.48747,8.50829,13.49437.88445.99986,1.96919.42355,2.55997-.50133,2.168-3.39403-3.9875-29.51-3.50823-36.52029.24349-3.56147,2.65796-16.32468,7.51777-15.33221l1.25148,1.51759c1.90023,15.85813,3.04106,31.91316,5.28938,47.72321,7.91638,55.66739,33.10139,180.25833,79.42082,215.57918,1.94029,1.47957,13.30319,7.65477,15.01264,7.98737,28.85901,5.61501,57.22605-11.60545,77.49924-30.47593,5.13437-4.77912,11.54535-11.76496,12.02653-18.97274,1.63267-24.4567-14.16836-60.24788-21.5523-83.52482-9.24055-29.1297-16.9795-58.4889-25.03454-87.96546-4.01305-14.68535-6.93218-29.89755-11.92613-44.07387-5.43691-15.43376-14.452-31.47418-25.3792-43.62204l.35885-2.3588c6.76334-.91571,13.13572,7.22977,16.89002,12.11574,2.50673,3.26235,4.05446,7.01412,6.16609,9.82934.75628,1.00827,6.00144,7.31379,6.41787,7.58467,1.66535,1.08324,2.04563-.04766,3.02097-1.0235ZM551.58228,435.25704c-1.94559-1.15202-21.12318-10.0946-19.71343-3.79511,1.0879,2.19546,5.18521,1.87446,6.08926,3.14852,1.13485,1.59932,2.82304,8.74047-.34095,9.69945-3.73668,1.31945-6.75344-2.51802-9.45006-3.13582-3.48896-.79932-13.99172-2.06153-17.75887-2.23317-7.69696-.35069-14.92837,2.23988-22.55002,2.52577-8.59847,8.43132,7.93563,11.14296,13.39466,14.40688l.50246,3.48233c-.88622,2.64791-7.85283-.13747-9.88826-.88207-2.06432-.75518-3.55402-2.78608-5.7089-3.28641-2.5085-.58244-8.29167-.93805-6.82649,2.81778,1.50089,2.22829,5.08787.09852,5.45297,6.60436.78179,13.93108-9.48021,2.70136-15.65175,1.59802-25.57477-4.57221-67.23062,5.51839-84.59195,25.89227-3.38403,3.97123-11.58506,15.83478-8.54587,20.73555,4.47362,3.02287,7.35719-2.25889,10.38747-2.84282,25.33999-4.88294,41.89184,7.88577,50.81025,30.16665.60059,1.50047.68027,3.22321.67872,4.82058,3.11229.91442,2.52223-1.50409,4.35299-2.17613,23.46373-8.61308,49.90975-11.07396,72.8644-22.10521,35.92559-17.26465,40.82102-42.3864,37.75893-79.20301-.17374-2.08892-.76833-4.21545-1.26556-6.23841ZM418.51157,545.6366c1.98872-2.62266,8.60672-13.91308,6.87729-16.65708-.92527-1.46808-11.44167-7.77817-13.50752-8.52038-26.47241-9.51087-64.94803,8.72874-85.36301,25.71426-3.76576,3.13316-6.95411,7.95674-11.10631,10.79993-2.57632,4.64244,4.06769,14.49043,7.52692,17.42819,18.49756,15.70912,48.09528,6.26893,65.8282-4.02484,9.18126-5.32962,23.36575-16.32812,29.74442-24.7401Z"/><path class="cls-1" d="M433.86547,180.47501c-.97534.97585-1.35561,2.10675-3.02097,1.0235-.41644-.27087-5.66159-6.5764-6.41787-7.58467-2.11164-2.81522-3.65936-6.56699-6.16609-9.82934-3.7543-4.88597-10.12668-13.03145-16.89002-12.11574l-.35885,2.3588c10.9272,12.14786,19.94229,28.18828,25.3792,43.62204,4.99395,14.17632,7.91308,29.38852,11.92613,44.07387,8.05503,29.47657,15.79399,58.83576,25.03454,87.96546,7.38393,23.27694,23.18497,59.06812,21.5523,83.52482-.48117,7.20778-6.89215,14.19362-12.02653,18.97274-20.2732,18.87048-48.64024,36.09094-77.49924,30.47593-1.70945-.3326-13.07234-6.5078-15.01264-7.98737-46.31943-35.32085-71.50444-159.91179-79.42082-215.57918-2.24832-15.81004-3.38915-31.86507-5.28938-47.72321l-1.25148-1.51759c-4.85981-.99247-7.27428,11.77074-7.51777,15.33221-.47927,7.01029,5.67623,33.12626,3.50823,36.52029-.59078.92488-1.67552,1.50119-2.55997.50133-1.79643-1.00689-7.61769-11.13478-8.50829-13.49437-1.0904-2.88893.32262-7.46644-3.45046-9.03919-2.56283,7.59854,1.41595,13.88607,2.75476,20.73488,9.51748,48.68742,27.42532,101.09376,49.99833,145.00168,10.91412,21.22963,25.40571,40.55583,36.44378,61.55622,3.82654,7.28016,11.83072,24.25237,10.56361,31.96517-5.95013,36.21785-55.39097,42.88162-85.31535,40.78656-4.2874-.30017-23.55279-3.3201-25.50785-5.75491-4.9693-10.55355-11.91441-20.11136-17.33903-30.39821-30.36709-57.58592-48.5315-118.66904-51.64949-184.35051-.2536-5.34214,1.03042-36.79628-.89181-38.10144-5.47211-2.48306-8.15228,1.9338-9.38703,6.74086-.6375,2.48188-1.73547,11.8299-1.62446,14.24519.13634,2.96629,2.81195,5.73813.92581,9.57499l-2.96279.00013c-2.47171-4.8066,4.03371-11.23846-2.50348-12.99564-2.24871.46629-1.6541,10.20647-1.50263,12.48147,1.5239,22.8885,8.14352,60.17137,13.69872,82.3021,6.80879,27.12473,17.64094,46.29301,28.79562,71.20438,10.83038,24.18711,29.65318,63.9203,10.92602,87.93948-11.11802,14.25981-37.85856,12.53545-53.69902,8.83352-87.26986-20.39501-84.38627-135.9452-106.69638-205.30338l-2.53688-3.44315c-1.39979,1.12408-1.9566,3.04257-2.25484,4.72587-4.99237,28.17798,14.86691,57.10668,13.65217,85.14977-2.34972.68695-4.0832.91067-6.51054.30285-10.98179-2.74993-25.04377-13.13665-32.35724-21.72825-29.68065-34.86773-29.41411-95.4133-2.46765-131.40763,1.64123-2.19231,9.43672-11.17735,11.3863-11.67102,2.74584-.11025,5.4055,6.89617,8.0743,5.14388,4.49887-6.19275,8.26394-12.83383,8.99196-20.53144,1.56519-1.52452,1.76146.13939,1.96058,1.50483.39229,2.69012.21429,5.71451,1.03154,8.48905,1.6705.37798,2.02076-.54596,2.97595-1.51499,9.66744-9.8075-1.04096-32.33983,5.31356-40.1972,2.73332-3.37976,20.35392-16.09867,24.7805-18.70841,7.19729-4.24325,17.22274-8.42979,24.81764-12.18236,2.02229-.9992,10.67681-6.18367,11.76861-6.29471,3.67011-.37328,5.75172,11.62937,6.62592,14.11077,1.3905,3.94692,4.02998,7.5442,3.92998,12.54686l3.81211.80186c3.37835-2.46829-1.49793-20.25077-2.53332-24.55746-.43239-1.79852-2.06751-3.24706-2.43829-5.56167-6.07395-37.91711,33.50023-55.74224,64.20005-40.20009,1.99791,1.01146,10.54283,7.95469,11.73509,6.75465-.26266-6.37032-5.37522-13.29569,4.00305-15.00861l-2.8955-4.62657c-.60485-3.52334,13.55643-14.51589,16.90043-15.85685,3.25538-1.30542,8.92342-1.03421,10.89701-4.10303,2.15496-3.35084,1.37567-19.37268,3.54958-24.45042,18.73787-41.7533,69.3336-40.699,104.90595-21.80478,1.70233.90419,2.69075,3.49336,5.06141,2.81339,1.1703-.33568,1.11069-2.85592,3.48805-3.53193,11.80141-3.35575,24.51524-2.53739,36.33805-7.68321,15.67853-6.82401,30.91581-23.35781,47.20323-27.79689,60.74445-16.55567,66.22709,83.7906,81.35696,119.75094,10.91469,25.94177,32.29465,39.31425,34.10126,71.91616.12938,2.33476-2.81695,7.11876,2.44602,6.18243,1.41969-.25257,2.85992-2.91244,4.14948-3.77746,2.86467,1.66244,2.05942,4.39812,3.05582,6.92628,17.74521,45.02509,33.92509,116.64568,20.16855,164.27985-1.18985,4.12005-5.17742,15.41379-7.31039,18.68961-3.66827,5.63372-9.63559,5.71919-15.87193,6.12807-18.14721,1.1898-36.99498-2.76614-55.32943-.66658-2.93522-.81845-11.4329-8.7203-13.72314-11.36841-15.44999-17.86414-25.45134-54.16979-33.20006-76.79612-17.75512-51.84511-32.75425-100.07622-36.2792-155.7208-.27502-4.34148.8697-23.66622-1.02469-25.48614-1.31892-1.26707-2.98535,1.83065-2.98535,2.49617v42ZM531.86885,431.46194c1.0879,2.19546,5.18521,1.87446,6.08926,3.14852,1.13485,1.59932,2.82304,8.74047-.34095,9.69945-3.73668,1.31945-6.75344-2.51802-9.45006-3.13582-3.48896-.79932-13.99172-2.06153-17.75887-2.23317-7.69696-.35069-14.92837,2.23988-22.55002,2.52577-8.59847,8.43132,7.93563,11.14296,13.39466,14.40688l.50246,3.48233c-.88622,2.64791-7.85283-.13747-9.88826-.88207-2.06432-.75518-3.55402-2.78608-5.7089-3.28641-2.5085-.58244-8.29167-.93805-6.82649,2.81778,1.50089,2.22829,5.08787.09852,5.45297,6.60436.78179,13.93108-9.48021,2.70136-15.65175,1.59802-25.57477-4.57221-67.23062,5.51839-84.59195,25.89227-3.38403,3.97123-11.58506,15.83478-8.54587,20.73555,4.47362,3.02287,7.35719-2.25889,10.38747-2.84282,25.33999-4.88294,41.89184,7.88577,50.81025,30.16665.60059,1.50047.68027,3.22321.67872,4.82058,3.11229.91442,2.52223-1.50409,4.35299-2.17613,23.46373-8.61308,49.90975-11.07396,72.8644-22.10521,35.92559-17.26465,40.82102-42.3864,37.75893-79.20301-.17374-2.08892-.76833-4.21545-1.26556-6.23841-1.94559-1.15202-21.12318-10.0946-19.71343-3.79511ZM425.38886,528.97952c-.92527-1.46808-11.44167-7.77817-13.50752-8.52038-26.47241-9.51087-64.94803,8.72874-85.36301,25.71426-3.76576,3.13316-6.95411,7.95674-11.10631,10.79993-2.57632,4.64244,4.06769,14.49043,7.52692,17.42819,18.49756,15.70912,48.09528,6.26893,65.8282-4.02484,9.18126-5.32962,23.36575-16.32812,29.74442-24.7401,1.98872-2.62266,8.60672-13.91308,6.87729-16.65708Z"/></g></svg>