<?xml version="1.0" encoding="UTF-8"?><svg id="Layer_2" xmlns="http://www.w3.org/2000/svg" width="454.28845" height="484.27382" xmlns:xlink="http://www.w3.org/1999/xlink" viewBox="0 0 454.28845 484.27382"><defs><style>.cls-1{fill:url(#radial-gradient);}.cls-2{fill:url(#linear-gradient);}</style><linearGradient id="linear-gradient" x1="-28.00518" y1="111.84041" x2="427.11794" y2="438.42251" gradientUnits="userSpaceOnUse"><stop offset=".13577" stop-color="#4d6773"/><stop offset=".17867" stop-color="#617c88"/><stop offset=".2779" stop-color="#8ba7b3"/><stop offset=".36698" stop-color="#a9c7d3"/><stop offset=".44183" stop-color="#bcdbe7"/><stop offset=".49336" stop-color="#c3e2ee"/><stop offset=".55675" stop-color="#bcdae6"/><stop offset=".6503" stop-color="#a9c6d2"/><stop offset=".76256" stop-color="#89a6b2"/><stop offset=".88829" stop-color="#5e7985"/><stop offset=".93427" stop-color="#4d6773"/></linearGradient><radialGradient id="radial-gradient" cx="227.82177" cy="258.19447" fx="227.82177" fy="258.19447" r="248.63833" gradientUnits="userSpaceOnUse"><stop offset=".34339" stop-color="#4d6773"/><stop offset=".43614" stop-color="#4f6975"/><stop offset=".49305" stop-color="#57727e"/><stop offset=".54031" stop-color="#65808c"/><stop offset=".58228" stop-color="#7994a0"/><stop offset=".62072" stop-color="#92afbb"/><stop offset=".6561" stop-color="#b1cfdb"/><stop offset=".67324" stop-color="#c3e2ee"/></radialGradient></defs><g id="Layer_1_copy_3"><path d="M203.8928,0c.00465,0,.00223.00377.00222.00842l-.02129,27.99621c.03871,3.05117,6.2356,2.1673,8.60074,2.07916,30.11429-1.12232,53.01526.43953,81.73048,9.38381,142.76504,44.46877,204.41253,209.39949,125.23309,338.10658-1.0994,1.78709-6.08485,10.22722-6.08485,10.22722l31.70159.01787-73.19169,95.99201c-.19323.05528-.36684.2715-.45981.45669-.00192.00383-.00555.00585-.00983.00585H29.00069c-.00647,0-.01052-.00701-.00729-.01262l38.09109-65.84178s-.1705-.23398-.17181-.23546c-1.61307-1.81176-5.87502-6.55065-7.56162-8.43483-79.41931-88.72323-79.57916-221.98534,2.20641-309.20284,3.95674-4.21954,8.60278-8.02366,12.62982-11.88639,2.41794-2.31928,4.0316-3.52113,4.32643-7.00602.37657-4.45112-.14151-9.65674-.2222-14.14925C63.71832,45.67437,46.52846,25.80437,31.10793,4.58582c-.50335-.6926-3.09785-4.05847-2.58564-4.58008.00217-.00221.00116-.00344.00425-.00344.4286,0,174.64772-.00229,175.36627-.0023ZM90.52815,407.49306c-8.88149,17.74733-34.3194,59.24637-35.1767,60.60717-.00376.00597-.13502.01237.00746.0122l308.09392-.15721c.00142,0,.09823-.09689.09918-.09795.75177-.84087,52.68584-65.71951,52.68584-65.71951l-227.2712.37006c.22392-13.16664.05709-26.9394-.12934-40.14055-1.22403-86.67362.42024-174.44012.7354-262.20648.09901-27.57188-.00248-57.60169-.06448-85.17178-.00001-.00467-.00382-.00838-.00848-.00834H58.86983s33.98169,43.42076,34.44587,47.21829c.00006.00048.00008.00095.00008.00143-.40251,79.12711.37323,158.2381.47119,236.84707.03647,29.26669.36818,58.99673-.9646,88.30595-.28357,6.23602.53157,11.38428-1.11822,17.46849-.00108.00397-.00271.00826-.00451.01196-.66432,1.37091-.85279,2.02233-1.1715,2.65919ZM301.99209,60.12951c-3.9701-1.39191-7.32799-2.35686-10.83532-3.73891-12.3547-4.8683-33.18637-7.78386-46.37039-9.6011-7.30046-1.00627-18.66041-1.04745-26.21524-.68438-1.50773.07246-15.37539.91342-15.51181.91714-.00469.00013-.00245.0039-.00226.00859l.94724,23.61678c.00019.00462-.00237.00842.00225.00828.15659-.00493,9.86514-.31027,12.13241-.36979,57.56193-1.51112,106.96235,16.93119,145.22948,56.76758,19.46553,20.26377,33.87165,42.74756,42.86607,68.84889,20.70509,60.08506,9.15325,128.34558-30.07161,177.94259-2.68319,3.3927-5.70279,6.95817-8.48118,10.18411l-1.91667,2.39583,2.08554.02259c7.93381-.0894,27.29.22148,27.29.22148,0,0,2.52304-3.35323,4.64251-6.24707,31.27307-42.699,45.58517-99.99505,37.89588-153.5091-5.41633-37.69525-22.10692-74.45838-45.29634-102.71591-8.13834-9.91699-15.48418-17.05981-24.38083-24.90364-6.71363-5.91915-12.36454-10.54508-19.29776-15.16461-7.25123-4.83142-13.89382-9.22254-22.16762-13.46043-.00051-.00026-.00103-.00055-.00152-.00084-2.63578-1.59273-5.25818-2.85918-5.88482-3.13751-5.00448-2.22287-15.75027-7.08231-16.65799-7.40056ZM343.33484,133.51036c-35.30087-32.84718-80.66209-48.70379-129.02407-45.16175-1.86809.13682-8.20286.71614-10.31623.89006-.00169.00014.12538,1.41292.12538,1.41461l.08329,295.59454c0,.00327-.12808.60883-.12481.60888,1.72954.0284,11.41584.07601,13.46469.09073,39.38594.28302,78.92862-.68929,118.35878-.36595.00178.00001.00352-.00055.00496-.00161,8.13986-6.0209,15.52916-13.23419,22.04543-20.9949,35.11874-41.82555,48.84834-101.49417,32.62864-155.57177-9.10101-30.34339-24.05059-54.91966-47.24604-76.50284ZM59.98836,384.36624c3.68767,4.86138,7.70524,10.17392,11.96889,14.65082,2.45476,2.57754,6.7399,4.63889,6.7399,4.63889l-.00379-31.77778s-7.53844-10.31238-9.8744-13.9942c-38.42418-60.56208-38.4281-140.44212.22745-201.05007,2.90813-4.55965,6.60703-8.74923,9.25154-13.41637-.27438-9.42131.15236-33.26854.15236-33.26854,0,0-4.20705,3.2094-4.20856,3.21091-2.04958,2.04285-6.12785,6.0102-6.12785,6.0102-.00011.00011-.00022.00023-.00032.00034C4.25666,193.04138-.71007,302.39457,58.59885,382.51422c.001.00135.00081.00331.00176.00469.58671.85344.88409,1.23728,1.38775,1.84733ZM77.56444,329.32266c1.20499-.83044,1.02747-10.76225.92817-12.7129-1.53844-30.22235-.38275-60.5873-.5334-91.04923-.05186-10.48586-.14792-19.36287.43655-30.04697.08808-1.61019.42602-11.41197-1.51455-11.41635-.00205,0-.00419.00077-.0057.00216-1.25057,1.15097-2.34223,3.18653-3.09118,4.76025-17.89215,37.59512-17.93626,88.1237-3.85864,126.60149.76454,2.08969,4.94612,12.38495,6.02942,13.3981.42804.40032,1.19866.74646,1.60932.46345Z"/><path class="cls-2" d="M91.60537,404.92495c1.65194-6.0868.83617-11.23639,1.11983-17.47446,1.33278-29.30922,1.00107-59.03926.9646-88.30595-.09796-78.60924-.87371-157.72048-.47119-236.84786-.46366-3.79762-34.34877-47.316-34.34877-47.316h130.62991c.06199,27.57239.0748,57.7025-.02422,85.27718-.31515,87.76637-1.95943,175.53286-.7354,262.20648.18643,13.20114.48553,26.87137.26161,40.03801l227.23611-.36458s-52.11778,65.52484-52.78502,65.81745l-308.06609.25427c.75042-1.19325,26.16276-42.87204,35.04424-60.61937.87436-2.02507.97073-1.91474,1.1744-2.66518ZM320.12129,68.48776c-1.12361-.63199-4.95268-2.3867-7.02675-3.33181-5.00448-2.22287-7.90909-3.58097-11.19964-4.92938-3.74842-1.26574-7.32799-2.35686-10.83532-3.73891-12.3547-4.8683-33.18637-7.78386-46.37039-9.6011-7.30046-1.00627-13.27756-.96648-25.6739-.70378-1.52829.03239-16.05577.93661-16.05577.93661l.94792,23.63363s9.84861-.30985,12.13433-.36985c57.56193-1.51112,106.96235,16.93119,145.22948,56.76758,19.46553,20.26377,33.87165,42.74756,42.86607,68.84889,20.70509,60.08506,9.15325,128.34558-30.07161,177.94259-2.68319,3.3927-5.65919,6.96193-8.48118,10.18411l-1.91667,2.39583,2.08554.02259c7.93381-.0894,27.415.22148,27.415.22148,0,0,2.39804-3.35323,4.51751-6.24707,31.27307-42.699,45.58517-99.99505,37.89588-153.5091-5.41633-37.69525-22.10692-74.45838-45.29634-102.71591-8.13834-9.91699-15.48418-17.05981-24.38083-24.90364-6.71363-5.91915-12.36454-10.54508-19.29776-15.16461-7.25139-4.83152-13.91816-8.79403-22.16816-13.46069-.92888-.52543-3.84184-2.00997-4.31741-2.27746ZM59.12187,383.51212c.3376.45014.66411.8124.76945.95127,3.6876,4.8614,7.80231,10.07682,12.06592,14.55367,2.45476,2.57754,6.7399,4.63889,6.7399,4.63889l-.00379-31.77778s-7.59714-10.40452-9.9331-14.08633c-38.42418-60.56208-38.46657-140.25292.18897-200.86087,2.84303-4.45758,6.71814-8.97124,9.34871-13.51343.11824-.20417.15236-33.26854.15236-33.26854,0,0-2.35578,1.44927-4.66323,3.48508l-5.77052,5.83325C4.15896,193.13888-.80738,302.49337,58.50316,382.61325c.11152.15064.34351.53191.61871.89887Z"/><path class="cls-1" d="M343.23766,133.60743c23.19545,21.58318,38.14504,46.15945,47.24604,76.50284,16.2197,54.0776,2.4901,113.74622-32.62864,155.57177-6.51686,7.76141-13.90689,14.9753-22.04762,20.99653-39.43107-.3234-78.97467.64896-118.36154.36593-2.05118-.01474-11.05528-.02826-13.33969-.09073l-.08386-297.61804c2.93771-.22227,8.32231-.75318,10.19123-.89006,48.36198-3.54205,93.72319,12.31457,129.02407,45.16175ZM78.39543,316.70683c-1.53844-30.22235-.28558-60.68437-.43622-91.14629-.05186-10.48586-.14792-19.36287.43655-30.04697.08814-1.61112.42396-11.42107-1.52025-11.41419-1.25154,1.15058-2.43893,3.28261-3.18836,4.85731-17.89215,37.59512-17.93626,88.1237-3.85864,126.60149.76454,2.08969,4.94612,12.38495,6.02942,13.3981.42804.40032,1.19866.74646,1.60932.46345,1.20499-.83044,1.02747-10.76225.92817-12.7129Z"/></g></svg>