<?xml version="1.0" encoding="UTF-8"?><svg id="Layer_1" xmlns="http://www.w3.org/2000/svg" width="119.88" height="102.48" xmlns:xlink="http://www.w3.org/1999/xlink" viewBox="0 0 119.88 102.48"><defs><style>.cls-1{fill:url(#linear-gradient-2);}.cls-2{fill:#fff;}.cls-3{fill:url(#linear-gradient);}</style><linearGradient id="linear-gradient" x1="97.05929" y1="102.15035" x2="13.05093" y2="19.68464" gradientUnits="userSpaceOnUse"><stop offset=".03982" stop-color="#4d6773"/><stop offset=".11165" stop-color="#58737f"/><stop offset=".24266" stop-color="#7894a0"/><stop offset=".4169" stop-color="#aac8d4"/><stop offset=".49339" stop-color="#c3e2ee"/><stop offset=".61904" stop-color="#a6c3cf"/><stop offset=".89155" stop-color="#5c7783"/><stop offset=".94761" stop-color="#4d6773"/></linearGradient><linearGradient id="linear-gradient-2" x1="97.05929" y1="102.15035" x2="13.05093" y2="19.68464" gradientUnits="userSpaceOnUse"><stop offset=".03982" stop-color="#612c75"/><stop offset=".11892" stop-color="#6b387d"/><stop offset=".26321" stop-color="#875995"/><stop offset=".4552" stop-color="#b58dba"/><stop offset=".49339" stop-color="#bf99c3"/><stop offset=".63366" stop-color="#a57aad"/><stop offset=".93808" stop-color="#632e76"/><stop offset=".94761" stop-color="#612c75"/></linearGradient></defs><path class="cls-2" d="M59.16,0l54.17982,22.1408-.72602,4.37279-7.00786.01252c-.19232.74026-.25945,1.42088-.24841,2.18637.01724,1.19552.22011,2.36118-.17549,3.53956-.14152.42154-.40906.75014-.54203,1.16797h-2.7l.56622.54378c.99442,1.50511.10317,3.75602-1.7036,4.01871l1.31701,43.91788c2.31931-.04393,3.96289,2.10797,2.58037,4.19963h4.38v4.14h5.28v4.74h5.52v7.5H0v-7.5h5.52v-4.74h5.28v-4.14h4.26c-.08575-.21665-.23898-.37176-.32919-.60081-.76343-1.93844,1.28104-3.54198,3.02958-3.65888.10592-1.42874.07271-2.86096.11713-4.29279.08274-2.66669.16203-5.33628.24247-8.00753.2869-9.52632.63162-19.06125.90247-28.58753.02778-.97692.0127-1.95649.06024-2.93303-1.98029-.45652-2.841-2.64911-1.47335-4.24008l.39063-.35936h-2.55l-1.05-1.05v-5.85h-7.14l-.71736-4.37715L58.8,0h.36ZM111.6538,25.67359l.42333-2.42973-.05658-.11345L59.0089,1.49546,7.89575,23.10578l-.09207.13854.45322,2.43927,103.3969-.01ZM104.34,27.3H15.54v4.83c0,.0286.34049.33982.3752.43163l87.85828.02185c.20625.01372.26972-.22727.32865-.39135.43373-1.20757.10912-2.49094.1123-3.72213.00092-.35657.11098-.80395.12557-1.17ZM42.06,33.42h-12c.09673.13641.30486.22242.42048.34669,1.31256,1.41081.31324,3.98046-1.5528,4.28117l.1748,5.89967c.34811,11.72345.6722,23.44342,1.08,35.16.03233.9289.00912,1.86438.05722,2.79277,1.83438-.09293,3.81077,1.67763,2.95187,3.58127-.10457.23176-.28983.38914-.37156.61844h6.12c-.15669-.36072-.37717-.6403-.41932-1.05072-.18479-1.79911,1.39107-3.20222,3.11963-3.20907l1.32316-43.8236c-2.15525-.4559-2.6607-3.33218-.90347-4.59661ZM65.88,33.42h-11.94c1.11848.81033,1.44222,2.27387.66146,3.45146-.46101.69533-1.09147.89742-1.86546,1.08595l1.38371,43.94287c2.41485-.17602,4.22703,1.99598,2.82029,4.19971h6.12c-1.55055-2.16508.29724-4.32509,2.69144-4.14838.14386-.09024.17377-2.8673.18609-3.2641.10544-3.3961.00896-6.80508.06495-10.19505.11211-6.78847.61735-13.56549.77505-20.34495.06716-2.88709-.05277-5.81931.06-8.7.01105-.28214.20799-1.27536.06319-1.43836-.05318-.05986-.66451-.35504-.83567-.48423-1.16939-.88265-1.79392-2.46887-.69694-3.68683l.51189-.41811ZM89.76,33.42h-11.94l.5707.5393c1.10132,1.37698.21751,3.56373-1.46242,3.96896l1.31143,43.97204c1.16217-.08423,2.89308.83759,3.0552,2.07479.09888.75463-.03957,1.50293-.47491,2.12491h6.3c-1.41673-1.84449-.27105-3.56861,1.73944-4.11056.20392-.05497.74326-.03842.78063-.23937l1.32533-43.56067c-.02086-.25213-.46711-.28211-.72643-.41838-1.60809-.84504-1.98713-3.21015-.47898-4.35102ZM28.02071,37.13944c1.75594.59256,2.86336-2.28511.8529-2.68306-1.17146-.23188-2.4075-.12131-3.58423-.07699-1.49853.05645-2.99963.1377-4.49692.24308-.4934.11041-1.72992-.22165-2.10576-.00576-.04969.02854-.30989.30526-.35289.3671-.89314,1.28438.58416,2.62903,1.88559,2.0362l-1.37969,46.26017c-.8709-.19224-1.82068.00732-2.5147.57482-.97589.79797-.82024,1.94964.47162,2.21835.45913.0955,1.16982.13039,1.6505.1495,3.97576.15804,8.0204-.26507,12.00533-.18534.31299.00626.56716.14521.9107.0157.5026-.18947.97614-.84636.89048-1.39611-.18568-1.19162-2.14795-1.73759-3.09305-1.07713l-1.01812-33.99246c-.10193-3.39206-.31069-6.80304-.36495-10.19505-.01244-.77756-.06776-1.53006.24319-2.25303ZM53.04027,83.34028l-.71779-23.67275c-.19821-6.53831-.43653-13.07512-.6-19.62-.01798-.71998-.12677-1.56267-.11091-2.27808.01821-.82126.88482-.60398,1.42786-.78002.91603-.29695,1.15299-1.55747.45024-2.18909-.63656-.57213-2.83365-.39608-3.72214-.41786-1.79094-.04392-3.60064-.08804-5.39691-.00186-.36023.01728-.97077.04898-1.30395.13605-1.81195.47354-.76704,3.46659,1.03274,2.50336l-1.38001,46.55996c-.96546-.57972-2.11373-.35527-2.7841.54531-.77593,1.04238-.109,1.84741,1.02203,2.02738,2.54406.4048,5.84976.23202,8.4502.18485,1.7771-.03224,4.03241.08059,5.75501-.24499.54501-.10301,1.05196-.38089,1.11755-.98227.20143-1.84708-1.91896-1.96156-3.23981-1.77ZM99.66032,37.0802c.24034.01847.43983.12465.68972.12482,1.49995.001,2.21672-2.50666.29246-2.75752-2.0996-.27371-4.81333-.12412-6.95002-.06503-.82321.02277-1.70591-.04916-2.52162.05838-2.40851.31755-.91392,3.55506.92854,2.57916l-1.37999,46.31995c-.93926-.3039-2.75008.1132-3.062,1.16695-.1806.61009.31362,1.26363.81103,1.56518,3.08361-.08063,6.15978-.04472,9.24404-.08962,1.6807-.02447,3.41833-.01784,5.09505-.12495.70279-.04489.96898.21203,1.21551-.6445.46914-1.62998-1.82714-2.31421-2.98245-1.63304l-1.38027-46.49979ZM75.78059,37.02003c1.97803.66981,3.00451-2.39556.51174-2.58236-2.3413-.17545-5.1951-.02698-7.55986.06481-.6888.02674-2.0321-.11653-2.53108.37892-1.03377,1.02643,1.00176,2.72816,2.07858,2.5592-.38144,1.81418-.37218,3.69988-.36244,5.55188.0541,10.29484-.85854,20.53228-.84,30.84.00517,2.87612.15866,5.82718-.17784,8.69721-.02359.20121-.06609.71758-.17628.84342-.16001.18273-.53582-.01599-.75443-.03213-1.87905-.13871-3.25716,1.16582-1.6666,2.74664l15.18082-.03442c.68475-.35947,1.00428-1.49663.43905-2.08544-.69607-.7251-1.89365-.86903-2.76165-.38778l-1.38-46.55995ZM107.94,87.48H11.94v4.14h-5.28v4.74H1.08v5.28h117.72v-5.28h-5.58v-4.74h-5.28v-4.14Z"/><path class="cls-3" d="M107.94,87.48v4.14h5.28v4.74h5.58v5.28H1.08v-5.28h5.58v-4.74h5.28v-4.14h96ZM112.07713,23.24386l-.05658-.11345L59.0089,1.49546,7.89575,23.10578l-.09207.13854.45322,2.43927,103.3969-.01.42333-2.42973ZM52.32247,59.66753c-.19821-6.53831-.43653-13.07512-.6-19.62-.01798-.71998-.12677-1.56267-.11091-2.27808.01821-.82126.88482-.60398,1.42786-.78002.91603-.29695,1.15299-1.55747.45024-2.18909-.63656-.57213-2.83365-.39608-3.72214-.41786-1.79094-.04392-3.60064-.08804-5.39691-.00186-.36023.01728-.97077.04898-1.30395.13605-1.81195.47354-.76704,3.46659,1.03274,2.50336l-1.38001,46.55996c-.96546-.57972-2.11373-.35527-2.7841.54531-.77593,1.04238-.109,1.84741,1.02203,2.02738,2.54406.4048,5.84976.23202,8.4502.18485,1.7771-.03224,4.03241.08059,5.75501-.24499.54501-.10301,1.05196-.38089,1.11755-.98227.20143-1.84708-1.91896-1.96156-3.23981-1.77l-.71779-23.67275ZM76.29234,34.43766c-2.3413-.17545-5.1951-.02698-7.55986.06481-.6888.02674-2.0321-.11653-2.53108.37892-1.03377,1.02643,1.00176,2.72816,2.07858,2.5592-.38144,1.81418-.37218,3.69988-.36244,5.55188.0541,10.29484-.85854,20.53228-.84,30.84.00517,2.87612.15866,5.82718-.17784,8.69721-.02359.20121-.06609.71758-.17628.84342-.16001.18273-.53582-.01599-.75443-.03213-1.87905-.13871-3.25716,1.16582-1.6666,2.74664l15.18082-.03442c.68475-.35947,1.00428-1.49663.43905-2.08544-.69607-.7251-1.89365-.86903-2.76165-.38778l-1.38-46.55995c1.97803.66981,3.00451-2.39556.51174-2.58236ZM28.87362,34.45638c-1.17146-.23188-2.4075-.12131-3.58423-.07699-1.49853.05645-2.99963.1377-4.49692.24308-.4934.11041-1.72992-.22165-2.10576-.00576-.04969.02854-.30989.30526-.35289.3671-.89314,1.28438.58416,2.62903,1.88559,2.0362l-1.37969,46.26017c-.8709-.19224-1.82068.00732-2.5147.57482-.97589.79797-.82024,1.94964.47162,2.21835.45913.0955,1.16982.13039,1.6505.1495,3.97576.15804,8.0204-.26507,12.00533-.18534.31299.00626.56716.14521.9107.0157.5026-.18947.97614-.84636.89048-1.39611-.18568-1.19162-2.14795-1.73759-3.09305-1.07713l-1.01812-33.99246c-.10193-3.39206-.31069-6.80304-.36495-10.19505-.01244-.77756-.06776-1.53006.24319-2.25303,1.75594.59256,2.86336-2.28511.8529-2.68306ZM100.35004,37.20502c1.49995.001,2.21672-2.50666.29246-2.75752-2.0996-.27371-4.81333-.12412-6.95002-.06503-.82321.02277-1.70591-.04916-2.52162.05838-2.40851.31755-.91392,3.55506.92854,2.57916l-1.37999,46.31995c-.93926-.3039-2.75008.1132-3.062,1.16695-.1806.61009.31362,1.26363.81103,1.56518,3.08361-.08063,6.15978-.04472,9.24404-.08962,1.6807-.02447,3.41833-.01784,5.09505-.12495.70279-.04489.96898.21203,1.21551-.6445.46914-1.62998-1.82714-2.31421-2.98245-1.63304l-1.38027-46.49979c.24034.01847.43983.12465.68972.12482ZM15.54,27.3v4.83c0,.0286.34049.33982.3752.43163l87.85828.02185c.20625.01372.26972-.22727.32865-.39135.43373-1.20757.10912-2.49094.1123-3.72213.00092-.35657.11098-.80395.12557-1.17H15.54Z"/><path class="cls-1" d="M107.94,87.48v4.14h5.28v4.74h5.58v5.28H1.08v-5.28h5.58v-4.74h5.28v-4.14h96ZM112.07713,23.24386l-.05658-.11345L59.0089,1.49546,7.89575,23.10578l-.09207.13854.45322,2.43927,103.3969-.01.42333-2.42973ZM52.32247,59.66753c-.19821-6.53831-.43653-13.07512-.6-19.62-.01798-.71998-.12677-1.56267-.11091-2.27808.01821-.82126.88482-.60398,1.42786-.78002.91603-.29695,1.15299-1.55747.45024-2.18909-.63656-.57213-2.83365-.39608-3.72214-.41786-1.79094-.04392-3.60064-.08804-5.39691-.00186-.36023.01728-.97077.04898-1.30395.13605-1.81195.47354-.76704,3.46659,1.03274,2.50336l-1.38001,46.55996c-.96546-.57972-2.11373-.35527-2.7841.54531-.77593,1.04238-.109,1.84741,1.02203,2.02738,2.54406.4048,5.84976.23202,8.4502.18485,1.7771-.03224,4.03241.08059,5.75501-.24499.54501-.10301,1.05196-.38089,1.11755-.98227.20143-1.84708-1.91896-1.96156-3.23981-1.77l-.71779-23.67275ZM76.29234,34.43766c-2.3413-.17545-5.1951-.02698-7.55986.06481-.6888.02674-2.0321-.11653-2.53108.37892-1.03377,1.02643,1.00176,2.72816,2.07858,2.5592-.38144,1.81418-.37218,3.69988-.36244,5.55188.0541,10.29484-.85854,20.53228-.84,30.84.00517,2.87612.15866,5.82718-.17784,8.69721-.02359.20121-.06609.71758-.17628.84342-.16001.18273-.53582-.01599-.75443-.03213-1.87905-.13871-3.25716,1.16582-1.6666,2.74664l15.18082-.03442c.68475-.35947,1.00428-1.49663.43905-2.08544-.69607-.7251-1.89365-.86903-2.76165-.38778l-1.38-46.55995c1.97803.66981,3.00451-2.39556.51174-2.58236ZM28.87362,34.45638c-1.17146-.23188-2.4075-.12131-3.58423-.07699-1.49853.05645-2.99963.1377-4.49692.24308-.4934.11041-1.72992-.22165-2.10576-.00576-.04969.02854-.30989.30526-.35289.3671-.89314,1.28438.58416,2.62903,1.88559,2.0362l-1.37969,46.26017c-.8709-.19224-1.82068.00732-2.5147.57482-.97589.79797-.82024,1.94964.47162,2.21835.45913.0955,1.16982.13039,1.6505.1495,3.97576.15804,8.0204-.26507,12.00533-.18534.31299.00626.56716.14521.9107.0157.5026-.18947.97614-.84636.89048-1.39611-.18568-1.19162-2.14795-1.73759-3.09305-1.07713l-1.01812-33.99246c-.10193-3.39206-.31069-6.80304-.36495-10.19505-.01244-.77756-.06776-1.53006.24319-2.25303,1.75594.59256,2.86336-2.28511.8529-2.68306ZM100.35004,37.20502c1.49995.001,2.21672-2.50666.29246-2.75752-2.0996-.27371-4.81333-.12412-6.95002-.06503-.82321.02277-1.70591-.04916-2.52162.05838-2.40851.31755-.91392,3.55506.92854,2.57916l-1.37999,46.31995c-.93926-.3039-2.75008.1132-3.062,1.16695-.1806.61009.31362,1.26363.81103,1.56518,3.08361-.08063,6.15978-.04472,9.24404-.08962,1.6807-.02447,3.41833-.01784,5.09505-.12495.70279-.04489.96898.21203,1.21551-.6445.46914-1.62998-1.82714-2.31421-2.98245-1.63304l-1.38027-46.49979c.24034.01847.43983.12465.68972.12482ZM15.54,27.3v4.83c0,.0286.34049.33982.3752.43163l87.85828.02185c.20625.01372.26972-.22727.32865-.39135.43373-1.20757.10912-2.49094.1123-3.72213.00092-.35657.11098-.80395.12557-1.17H15.54Z"/></svg>