<?xml version="1.0" encoding="UTF-8"?><svg id="Layer_2" xmlns="http://www.w3.org/2000/svg" width="498.84135" height="471.62737" xmlns:xlink="http://www.w3.org/1999/xlink" viewBox="0 0 498.84135 471.62737"><defs><style>.cls-1{fill:url(#radial-gradient);}</style><radialGradient id="radial-gradient" cx="249.14863" cy="230.3466" fx="249.14863" fy="230.3466" r="220.65406" gradientUnits="userSpaceOnUse"><stop offset="0" stop-color="#dfc280"/><stop offset=".15931" stop-color="#d9bc7b"/><stop offset=".36423" stop-color="#c9ad6e"/><stop offset=".59409" stop-color="#ae9459"/><stop offset=".84043" stop-color="#8a713b"/><stop offset=".92501" stop-color="#7c6430"/></radialGradient></defs><g id="Layer_1-2"><path d="M313.28525,24.86638c24.07381,23.5129,28.34154,57.46985,18.51867,88.92187l158.50935.48695c7.96052,1.55284,11.1349,11.35737,6.1082,17.61063l-151.10438,212.45159c-2.02397,11.50606-10.50952,15.83491-16.59702,23.21188-25.15657,30.48533-45.92662,68.77287-70.79533,99.95127-3.62916,4.2799-10.30643,5.84363-14.63075,1.70959L3.54546,132.44909c-5.13681-6.21342-5.35229-15.53601,3.78047-17.70752l158.52471-.47642C131.47502,25.77823,249.84199-37.0987,313.28525,24.86638ZM210.4562,15.4681c-3.47448,1.71033-6.4073,3.57891-9.59251,5.7555-11.04944,7.55058-23.8056,21.03245-29.18716,33.40394-9.18503,21.11518-6.83921,44.4175,2.80777,64.91924-53.9672,3.27535-110.09911-1.43624-164.29271.45683-1.70241-.14547-2.06741.45637-3.09651,1.46167-2.38439,2.32923-.56728,3.92302.57062,6.38351,33.75097,47.27168,67.5066,94.46376,101.10994,141.82071,1.39336,1.96365,2.96085,3.84478,4.31663,5.7555,24.22879,34.14612,48.1203,68.53057,72.42342,102.63981.85831,1.20463,2.19973,2.40618,2.87775,3.35738,8.18101,11.47709,16.24931,23.05104,24.46089,34.53302,1.09463,1.53059,2.12221,3.55004,3.35738,5.27588,8.31202,11.61396,16.36696,23.61031,24.94052,35.01265,1.15223,1.53239,2.14536,3.32068,3.35738,4.79625,2.42818,2.9562,4.11747,7.15485,8.42696,2.65874,25.18049-31.07761,46.41567-72.108,72.14779-102.0403,1.68581-1.96098,5.5957-3.70125,8.07408-6.9373,3.14432-4.10557,3.5264-8.5929,5.35773-11.66897.83472-1.40206,1.96341-2.7864,2.87775-4.31663.29535-.4943.65714-.94934.95925-1.43888.85421-1.38414,1.95496-2.9228,2.87775-4.31663,45.99196-69.46865,98.89668-134.65521,145.50982-203.89022,2.57891-3.15946,3.42519-7.09229-1.14261-8.58379-38.50436-.87881-77.07128-.47963-115.5897-.47963h-50.84028c-.48069-.8534,4.85654-15.64415,5.43319-18.82087.76457-4.21195,1.06793-8.5374,1.28157-12.8344,1.45272-5.15301.75651-10.60562,0-15.82763-4.43399-56.86692-72.42457-80.21245-119.4267-57.07541Z"/><path class="cls-1" d="M179.28055,129.13929c4.85125,1.21033,2.51787,13.74969,2.39813,17.74614-.1339,4.46901.41268,9.00078-.47963,13.42951-.57626.69922-4.05448,2.27375-5.04641,2.4267l-67.51806,1.98855c-6.63525,2.25265,6.0238,12.73572,7.81505,14.76976.71487.81177,1.25824,2.83523,2.87775,3.35738,1.97472,3.47604,17.19116,18.49145,17.19559,19.9891.00488,1.6533-21.73542,19.20485-23.32611,23.06333-1.33661,3.24216,4.87922,8.65123,7.08977,11.14522,2.29922,2.59402,4.69123,5.28837,7.19438,7.674,3.46049,6.94282,23.42196,23.09284,24.14273,28.84517.41568,3.31748-11.50074,20.30041-15.06009,19.41549-3.70671-.92156-38.32565-56.02685-45.05453-61.69016l-4.79625-6.71475c-1.11064-1.55818-2.24477-3.21707-3.35738-4.79625l-4.79625-6.71475c-1.52338-2.24511-8.88966-12.49233-8.89846-13.96495-.01055-1.76564,10.72115-8.73128,11.62567-10.1615,3.79328-5.99791-5.22222-13.27591-8.48272-17.60095-1.24629-1.6532-2.37848-4.89179-4.31663-6.23513-1.75834-2.99463-10.65047-11.63351-5.7555-13.90913h11.99063c4.60427,0,17.62774.87807,21.10351,0,3.33716-.84306,1.84505-8.8051,1.43888-11.51101.19896-3.36316-1.3614-8.82071,2.87775-10.07213l79.13817-.47963ZM194.14894,40.88824c-4.89075,5.2538-10.5087,13.14315-13.42951,19.66464-6.84407,18.62426-4.45468,37.9258,3.837,55.63653,1.95008,2.42015,1.15702,3.32064,4.31663,3.837,2.80005-1.46597,19.48288.35187,20.62127-.48307.19767-.14498-.38143-1.53162-.47701-1.91505-.85949-3.44808-3.86261-7.69182-4.95201-12.07469-10.60945-42.68371,32.62977-65.93884,68.74217-48.83772,23.52323,11.13948,24.24706,42.06322,13.90913,62.83091h23.98126c1.32103,0,7.17304-22.97094,7.52922-25.32511,3.47555-22.97129-1.96791-45.09436-19.99948-60.52782-26.54202-22.71767-69.4404-21.63213-96.40468,0-2.03539,1.6329-5.87245,5.25909-7.674,7.19438ZM322.20889,128.65967c-1.27464.1909-3.01875,2.66865-3.35738,3.837.91384,6.04185.26218,12.15887.47963,18.22576.09717,2.71122-.79352,12.69628,2.3557,13.70622,4.09189,1.31224,31.686.22269,38.41245.20292l19.66464-.47963c3.99432.00685,19.02824-2.21157,18.23617,3.56697l-31.94047,40.02771c-1.1849,5.68508,9.19467,11.64422,13.01797,15.36613,1.1949,3.28455,5.4174,3.81016,5.54331,7.01221.11329,2.88103-29.5559,30.66527-30.09859,33.77957-.68703,3.94263,11.06486,1.9827,13.25097,1.92798,4.30551-.10777,8.64284.07897,12.94988,0,4.32967-1.2397,20.1981-25.94271,23.98126-31.17564,1.64152-2.27059,3.70499-4.47083,5.27588-6.71475,2.53493-3.62098,19.73018-27.51026,19.93088-29.2694.63439-5.56043-13.66747-11.40531-13.26168-16.05776.18267-2.09433,13.53371-17.28605,15.87319-19.90188l4.79625-6.71475c-.55024-3.66656-2.24211-2.20176-5.7555-2.39813-5.82328-.32548-11.89009.06345-17.74614,0-3.79294-.0411-11.54063,1.97382-13.64585-1.94198-2.80531-5.21799.41834-18.98905-4.57991-22.51891h-1.43888c-23.9663,0-47.99631.39874-71.94379-.47963ZM226.28383,69.18613c-1.93588,1.42741-3.7226,3.88314-5.7555,5.27588-.41836.68372-1.31573,1.68167-1.43888,1.9185-6.91431,13.29772-5.92025,23.55811.47963,36.93115,1.29962,1.96749,4.19865,6.32661,6.44912,6.73722,12.75363-2.0882,32.19524,2.40481,44.17534.00147,1.47791-.29649,3.00872-1.86025,4.05282-2.90169,7.15068-12.12918,9.46893-27.68948,3.35738-40.76815-10.65568-15.73126-36.66257-18.00189-51.31991-7.19438ZM203.74144,196.76646c-.16119.09539-1.45278,1.56334-2.87775,2.39813-6.98028,4.08923-12.81873,8.91432-20.84845,11.52626-5.89524,1.91762-22.97055,3.23879-26.61381,5.52109-2.29253,1.43614-3.61143,8.83142-.02064,10.2913l14.86838.47963c33.00524.52699,25.52478-10.12438,48.29384-25.80827,27.59329-19.00693,47.096-8.68988,70.65323,8.06213l6.23513,4.79625c.82212.59129,1.7488,1.48029,2.39813,1.9185,2.41324,1.62864,6.20098,4.90606,8.63326,5.7555,3.03261,1.05911,38.61486,1.25075,42.39788.46584,3.92746-.81488,5.17949-3.59054,2.44953-6.70318-4.31315-4.91776-16.31747-3.85483-22.00154-4.85772-26.25393-4.63223-36.0685-26.55971-68.88991-28.71384-.15921-.01045-.32032.00899-.47963,0-21.76556-1.22848-35.98144,4.08779-54.19766,14.86838ZM272.80749,391.0147c-6.0072.02699-12.17481.4172-18.22576.47963-4.94765.05105-9.92244-.09732-14.86838,0-4.56524.08983-27.18862-.17941-29.399.57772-4.05979,1.39061.92563,6.51176,2.06036,8.53516l4.31663,6.23513c9.83131,13.78673,20.64428,26.91033,29.90826,41.0734,4.2647,3.07602,6.62719-1.30509,8.94139-4.14225,2.08915-2.56125,3.47321-6.9409,6.71475-8.63326,5.46832-8.69008,26.75343-34.80555,28.8897-40.89137,1.54141-4.39119-2.2287-3.03982-5.38806-3.23415-4.13128-.25412-8.75882-.01883-12.94988,0ZM222.92646,379.02407c17.13553-.39881,21.45925,3.0582,19.19863-17.99956-.42545-3.96308-5.6025-12.9779-9.8177-12.23014-1.27448.22609-7.60101,8.87601-9.62374,10.56206-19.64282,16.37336-44.47923-.00077-30.44024-17.96999,2.37543-3.04044,16.98632-14.27358,16.56801-17.55414-.1244-.97561-12.49471-13.17229-13.99489-13.82241-3.99892-1.733-13.45978-1.09836-18.19768-1.03489-3.30549.04428-25.47294.70845-26.47261,1.58476-.40685.35664-.62712,1.22695-.35423,1.75907l44.22634,62.86871c5.19895,5.44033,7.60127,3.6068,14.51936,3.83653h14.38876ZM345.71053,231.77911c-6.79413-.29278-16.44819.25615-23.50164.47963-9.87119.31275-11.97618-1.48022-19.90836,5.25622-8.4559,7.18122-12.54936,13.85666-22.77829,20.64354-1.76871,1.17353-2.2383,2.00871-4.79625,3.35738-22.15835,11.68285-49.52535,7.43458-69.49773-7.00251-4.85375-3.50855-15.19673-16.00056-18.32354-17.16873-3.47013-1.29644-6.49428-.62597-10.02229-.76928-8.28006-.33633-16.65297.24961-24.94052,0-.4263.44366-1.56552,5.24033-1.47715,6.00412.80889,6.99145,23.01953,3.59043,27.63247,4.05373,9.336.93766,13.55904,8.85791,20.40673,14.12479,27.02267,20.78443,61.53003,29.09411,91.32744,7.46984,19.53013-14.17321,11.8444-24.6961,41.97-24.93773,4.3182-.03464,8.66717.27014,12.94988-.47963,5.33914-2.28571,7.42586-10.75271.95925-11.03138ZM194.65916,132.28722c-2.56405,11.39858.59521,28.51823-1.59795,40.15558-.35175,1.86644-1.40047,2.77-3.2289,3.22015-4.30912,1.06087-9.46923.43168-13.90913.47963-4.7776.05159-9.61269.09275-14.38876,0-.50507.77074-1.62409.46787-2.39813.47963-5.57177.08459-11.22661-.24385-16.78689,0-1.54096.06758-7.84652-.77171-7.62937,1.60702.13923,1.52511,19.20891,19.02832,21.56338,21.75213,2.36981,3.11116-3.02026,4.09307-1.69396,6.37743,12.08921-2.99693,22.96763-3.31994,34.12416-9.51194,3.04925-1.69237,5.59212-4.0775,8.31307-5.83588,2.18655-1.41303,4.33316-3.50872,7.19438-5.27588,2.76965-1.7106,15.22283-7.04141,15.82595-7.68166.52438-.55667-3.22839-2.13443-3.73131-4.17316-.82638-3.34997-.02457-11.90469-.10401-15.96345l-.95925-27.81827c-.04199-.07558-1.2546-.86054-1.43888-.95925h-16.30726c-1.68721.89498-2.3653,1.00584-2.84716,3.14793ZM290.074,129.13929c-4.17335,4.18204-1.87724,13.37706-1.9185,19.18501-.02721,3.82998.01986,7.68091,0,11.51101.74949,3.58288,1.18798,11.36594-1.109,14.24514-.70818.88769-4.71597,2.32925-4.41484,3.02384.34773.80208,13.29526,6.22517,15.70216,7.69043,19.15068,11.65839,17.49869,15.84184,42.7902,17.27721,5.11882.29051,6.61906,3.1634,12.26575-1.22341,1.09076-.8474,17.14445-20.04339,17.49427-21.3796.19001-.72581.45556-1.11079.0251-1.88476-.92178-1.65738-25.47705-.93434-29.51523-.96195-4.30959-.02947-8.64081.05177-12.94988,0h-18.22576c-.30218-.05301-.71627.07696-.95925,0-3.84761-1.21869-2.32529-17.53937-2.39813-21.58314l-.47963-22.54239c-.39486-1.81717-.28612-2.1626-1.9185-3.35738h-.95925c-4.46708,0-8.98403.06347-13.42951,0ZM231.08009,254.32149c33.81261,19.17146,61.76544-24.52042,35.49647-46.28804-25.36016-21.01455-62.26462,9.46865-42.21122,40.05291l6.71475,6.23513ZM241.79172,243.84967c-16.76207-6.31827-6.59394-35.87217,13.05538-25.76472,14.2992,7.3554,5.31995,32.69109-13.05538,25.76472ZM292.47212,320.03016c-.1229,6.25598-.08789,13.52509,7.33203,15.9264,10.83916,3.50788,16.78601-12.98753,9.23558-12.09398-2.1945.25971-5.50519,10.35116-10.10689,4.33512-7.39454-9.66727,17.49026-21.51864,22.3168-4.33053.89886,3.20099,1.14774,8.34948-1.9185,10.55176-4.41862,10.11394-16.17694,13.69722-26.04837,8.54205-13.88705-7.25225-19.04168-23.40054-19.99566-37.79919-.30752-4.64147.32059-8.75854,0-12.94988-.19052-2.49084.51816-4.07162-2.65067-4.3332-7.19798-.59419-8.68385,3.94307-9.14754,9.92498-1.96611,25.36448,10.3921,60.35666,40.34237,60.61002,39.13011.331,38.3572-53.35002,3.83991-49.4055-6.82923.78042-6.53942,2.90819-10.80094,6.22572l-2.39813,4.79625ZM346.19016,251.92337c-7.30548.91722-11.3185.31191-18.22576.47963-16.26656.39496-23.91697,18.44284-38.701,27.7271-1.60803,1.00983-7.29211,3.12527-8.07682,3.91407-.22016.22131,1.69305,4.99099,1.69305,6.00941v17.98595c3.02439-1.49639,4.48605-5.7107,7.18443-7.44415,5.07534-3.26042,29.86135-2.43318,37.61861-3.11718,1.80982-.15958,7.00644-.292,8.10885-.6642,8.55045-2.88682-8.87598-16.38858-8.29889-21.57786.28247-2.54,15.03951-16.91656,17.73829-19.95539.6906-.77762,1.41283-2.53134,2.39813-3.35738-.47235.02917-.97366-.05841-1.43888,0ZM160.09554,297.00815l39.08182-.97021c1.95988.36994,12.00757,12.96494,13.19452,11.52009.56852-.69204.83032-14.92039,1.58349-17.84227.3636-1.41055,3.42736-6.31144,3.21535-6.61175-.41709-.5908-10.55282-4.96474-12.91238-6.51722-5.72483-3.76665-20.13117-17.96652-23.68045-19.48583-5.8089-2.48656-15.03152.57589-21.4414-.85506,1.97673,2.82178,12.46421,12.51572,12.51487,15.08823.07394,3.75443-13.58454,17.83874-14.43358,22.79626,1.00456,1.21327-.98675,2.21863,2.87775,2.87775ZM265.13348,128.65967c-4.04583-.0764-32.82935.08725-34.32912.92334-1.25222.69808-1.50644,2.81618-1.65878,4.09549-.25387,2.13194.22114,25.03161.60224,26.29002.25392.83845,2.81412,2.94012,3.62772,3.12652,1.86253.42672,35.9459-.25473,38.19739-.89747,1.62763-.46465,2.06757-.74919,2.67343-2.36225.0133-4.78922-.01809-9.59958,0-14.38876.01907-5.04698,2.14368-15.42064-3.837-16.78689-1.20504-.27528-3.80566.02776-5.27588,0ZM22.36307,133.26489c5.88727,5.649,38.52787,57.14012,42.08256,57.2901,1.65264.06973,8.07955-4.5411,6.7175-7.22446l-25.74098-36.16831c-1.36785-2.19328.70247-3.37188,2.74192-3.61031,8.321-.97282,31.15527,1.57711,37.58459-1.22789,4.29372-1.87328,4.36488-11.67533-.95428-12.70509-3.13619-.60715-9.03794-.35483-12.47026-.47963-3.66022-.13308-7.36647.06056-11.03138,0-7.80025-.1289-15.70167-.13575-23.50164,0-3.9289.06838-18.2753-2.15968-15.42803,4.1256ZM413.81732,129.13929c-.27198.04563-2.16309,1.40562-2.39813,1.9185-.92751,7.27889-.32415,9.77999,6.71475,10.55176,2.74573.30105,4.66962-.29963,7.674.47963,2.42392-.35212,4.81571-.02898,7.19438,0,3.52659.04297,28.25818.04355,29.21425,1.49942.40674.61937-.3492,1.09628-.43673,1.37833-.70016,2.25598-11.54024,15.54718-13.90913,18.70539-1.29102,1.72118-3.2757,3.39856-4.31663,4.79625-1.35172,1.815-8.77571,11.38021-8.98582,12.35593-.84219,3.91106,1.34602,6.75005,5.16786,4.21038.97502-.64792,9.43969-13.41974,11.01234-15.60706,1.98896-2.76634,3.88604-5.66581,6.23513-8.15363,6.16911-9.75493,14.97139-19.36834,20.62389-28.77752.02802-.83782.15553-2.01893-.43006-2.68519-1.06742-1.21446-19.35062-.63573-22.59195-.67219-6.22192-.06998-12.48275-.03553-18.70539,0-6.07644.03469-16.63682-.91033-22.06276,0ZM215.25245,331.06154c-2.76867,4.06432-17.58739,18.22439-17.67174,19.54775-.15565,2.44199,2.68929,5.72772,5.08412,6.22587,15.38077,3.19937,26.52682-21.78981,29.13895-33.44336,1.31917-5.88524,4.30223-24.09043,3.47354-29.38632-.72113-4.60851-6.87314-9.06657-10.42844-4.90759-4.07992,4.77269-2.15005,28.2343-7.1983,38.60628-.9948,2.0439-1.50399,2.04481-2.39813,3.35738ZM273.54514,357.42272c-1.70929-1.3767-8.57562-9.38737-9.22332-9.52944-1.06661-.23396-7.05846,5.90724-7.49792,6.80632-1.44666,2.95969-1.64602,19.61638.14987,22.1723,2.45446,3.49319,15.2842,1.83809,19.1911,1.67255,5.08409-.21542,10.2665-1.23945,15.34801,0,2.82475-.13346,5.85338.16618,8.63326-.47963,4.94263-1.14824,6.03986-4.75813,8.63326-8.63326-1.24808-2.71075-9.77524-2.20281-13.42951-2.87775-.95171-.17578-1.93015-.2901-2.87775-.47963-3.38254-.67654-4.9566-1.12734-8.15363-2.39813-4.00832-1.59327-7.42047-3.55285-10.77335-6.25334ZM242.11059,289.81293c-.67853.69578,1.07041,16.32807.94851,19.4141-.32942,8.33987-2.1011,16.84974-4.20061,24.8851,4.34315,3.82247,7.2116,10.92322,13.55771,6.05536.50357-.38627,5.44814-6.02372,5.49161-6.44485.10464-1.0137-4.76215-15.52732-5.2342-19.69819-.68933-6.09069-.71319-12.58151-.50462-18.70963.0342-1.00472,1.17616-4.83638.97199-5.01816-.41231-.3671-10.64497-.87896-11.03039-.48374ZM370.75998,282.4796c.28641-.92138.72653-1.65004-.0574-2.5454-.85892-.981-22.87754-1.05992-24.18457-.23289-2.06856,1.3089,3.82963,9.42586,4.94803,11.0717l6.23513,7.19438c2.44591.07032,12.33499-13.15923,13.05882-15.48779ZM333.23903,309.9607c-.44287.24077,3.80854,7.76722,4.31787,9.11021,3.69524,3.60871.23529,9.17928,5.27588,3.35738.82667-.9548,6.48889-9.36239,6.61649-9.94589.57319-2.62118-.53289-1.84701-1.34061-2.52437h-7.19438c-1.20549-.00012-7.31776-.19168-7.67524.00267ZM141.86386,218.82942c-2.33239,2.06277-4.79009,4.2572-6.70883,6.71455-3.32803,4.26226-2.85366,4.81417,1.9185,9.11288,3.56859,3.21455,3.80223,4.17162,5.7555.47963,2.88403-5.45127-2.59161-9.90563-.96517-16.30706ZM357.32301,226.8612c-.12957.54721,1.62293,10.58489,1.86952,11.09028.76663,1.57121,2.45186-1.03351,2.82526-1.37612,3.10583-2.84971,5.74142-5.09735,2.87775-9.11288-1.96742-2.75879-6.34505-5.78517-7.57253-.60128Z"/><path d="M489.59809,120.50601c-38.50433-.87878-77.07123-.47961-115.58966-.47961h-50.84027c-.48071-.85339,4.85651-15.64417,5.43317-18.82086.76459-4.21191,1.06793-8.53741,1.28156-12.83441,1.45276-5.15302.75653-10.60559,0-15.82764-4.43396-56.86688-72.42456-80.21246-119.4267-57.07538-3.47449,1.71033-6.40729,3.57892-9.59247,5.75549-11.04944,7.5506-23.8056,21.03247-29.18719,33.40393-9.185,21.11517-6.83917,44.41754,2.8078,64.91925-53.96722,3.27533-110.09912-1.43622-164.29272.45685-1.70239-.14551-2.06744.45636-3.0965,1.46167-2.3844,2.32922-.56732,3.92303.57062,6.38348,33.75092,47.27167,67.50659,94.46375,101.10992,141.82074,1.39337,1.96362,2.96082,3.84473,4.31665,5.75549,24.22876,34.14612,48.1203,68.53058,72.4234,102.63977.85828,1.20465,2.19971,2.40619,2.87775,3.35742,8.18103,11.47705,16.24933,23.05103,24.46088,34.53302,1.09467,1.53058,2.12219,3.55005,3.35736,5.27588,8.31207,11.61395,16.367,23.61029,24.94055,35.01263,1.15222,1.53241,2.14532,3.32068,3.35736,4.79626,2.42816,2.95618,4.11749,7.15485,8.42694,2.65875,25.18048-31.07764,46.41571-72.10803,72.14783-102.04034,1.68579-1.96094,5.5957-3.70123,8.07404-6.93726,3.14435-4.10559,3.52643-8.59296,5.35779-11.66901.83472-1.40204,1.96338-2.78638,2.87775-4.31659.29535-.49432.6571-.94934.95923-1.4389.85419-1.38416,1.95496-2.92279,2.87775-4.31665,45.99194-69.46863,98.89667-134.65515,145.50983-203.8902,2.57892-3.15948,3.42517-7.09229-1.14264-8.5838ZM370.88404,179.4689c-.34979,1.33624-16.4035,20.53223-17.49426,21.37964-5.64667,4.38678-7.14691,1.51392-12.26575,1.22339-25.2915-1.43536-23.63953-5.61884-42.79022-17.27722-2.40686-1.46527-15.35443-6.88831-15.70215-7.69043-.30115-.69458,3.70667-2.13611,4.41486-3.0238,2.29694-2.87921,1.85846-10.66229,1.10901-14.24518v-11.51099c.04126-5.80798-2.25488-15.00299,1.91846-19.185,4.4455.06348,8.96246,0,13.4295,0h.95929c1.63239,1.19476,1.52362,1.54016,1.91846,3.35736l.47968,22.54236c.07281,4.04382-1.44952,20.36444,2.39807,21.58319.24298.0769.6571-.05304.95929,0,4.04279.70917,11.63458.047,16.63751,0h1.10864c.15985.00208.31976-.00195.47961,0,4.30908.05176,8.64026-.02948,12.94989,0,4.03815.02759,28.59344-.69543,29.5152.96191.43048.77399.16492,1.15894-.02509,1.88477ZM362.01777,236.57535c-.37335.34259-2.05859,2.94733-2.82526,1.3761-.24658-.50537-1.99908-10.54303-1.86951-11.09027,1.22748-5.18384,5.6051-2.15747,7.57251.60132,2.86371,4.0155.22809,6.26318-2.87775,9.11285ZM344.75129,242.81052c-4.28271.74976-8.63171.44495-12.94989.47961-30.12561.24164-22.43988,10.76453-41.96997,24.93768-29.79742,21.62433-64.30481,13.31464-91.32745-7.46979-6.84772-5.26691-11.07074-13.18713-20.40674-14.12482-4.61292-.46332-26.82361,2.93774-27.63245-4.05371-.08838-.76379,1.05084-5.56049,1.47711-6.00415,8.28754.24963,16.66046-.3363,24.94055,0,3.52795.14331,6.55212-.52716,10.02228.76929,3.12677,1.16815,13.46979,13.66016,18.32355,17.16876,19.97235,14.43707,47.33936,18.6853,69.49768,7.0025,2.55798-1.34869,3.02759-2.1839,4.79626-3.35742,10.22894-6.78687,14.32239-13.46228,22.77832-20.64355,7.93219-6.73639,10.03717-4.94342,19.90833-5.25616l23.50165-.47968c6.46661.27869,4.37988,8.74567-.95923,11.03143ZM242.1106,289.81296c.38544-.39526,10.61804.11664,11.0304.4837.20416.18176-.93781,4.01343-.97198,5.01819-.20862,6.12811-.18475,12.6189.50458,18.70959.47205,4.1709,5.33887,18.68451,5.23419,19.69818-.04346.42114-4.98804,6.05859-5.49158,6.44489-6.34613,4.86786-9.21454-2.23291-13.55774-6.05536,2.09955-8.0354,3.87122-16.54523,4.20062-24.88513.12189-3.086-1.62701-18.71832-.94849-19.41406ZM160.09553,297.00815c-3.8645-.65912-1.87317-1.66449-2.87775-2.87775.84906-4.95752,14.50751-19.04181,14.43359-22.79626-.05066-2.57251-10.53815-12.26648-12.51489-15.08826,6.40991,1.43097,15.63251-1.63147,21.44141.8551,3.54932,1.51929,17.95563,15.71918,23.68048,19.48578,2.35956,1.55249,12.4953,5.92645,12.91235,6.51727.21204.30029-2.85175,5.20117-3.21533,6.61169-.75317,2.92194-1.01501,17.15027-1.5835,17.84229-1.18695,1.44489-11.23468-11.15015-13.19452-11.52008l-39.08185.97021ZM215.25245,331.06155c.89417-1.31256,1.40332-1.31348,2.39813-3.35736,5.04822-10.37201,3.11835-33.83362,7.1983-38.60632,3.5553-4.159,9.70734.29907,10.42847,4.90759.82867,5.2959-2.15442,23.5011-3.47357,29.38635-2.61212,11.6535-13.75818,36.6427-29.13898,33.44336-2.39478-.49817-5.23975-3.78387-5.08411-6.22589.08435-1.32336,14.90308-15.4834,17.67175-19.54773ZM137.07355,234.65683c-.76099-.68549-1.40045-1.26819-1.94489-1.79333.02008-.05341.0321-.09662.02136-.11395-.17542-.28259-.44318-.47357-.74457-.61377-2.10736-2.24396-1.78949-3.34003.74957-6.5918,1.9187-2.45734,4.37646-4.65179,6.7088-6.71454-1.6264,6.40143,3.84924,10.85577.96521,16.30707-1.95331,3.69196-2.18695,2.73492-5.75549-.47968ZM134.72004,178.22922c-.21716-2.37872,6.08844-1.53943,7.62939-1.60699,5.56024-.2439,11.21509.08453,16.78687,0,.77405-.01178,1.89307.29108,2.39813-.47968,4.77606.09277,9.61115.05164,14.38873,0,4.43994-.04791,9.60004.5813,13.90912-.47961,1.82849-.45013,2.8772-1.3537,3.22894-3.22015,2.19312-11.63733-.96613-28.75696,1.59796-40.15558.48181-2.14209,1.15991-2.25293,2.84711-3.14789h16.30731c.18427.09869,1.39685.88367,1.43884.95923l.95923,27.8183c.07947,4.05872-.72235,12.61346.10406,15.96344.50287,2.0387,4.25568,3.61646,3.73126,4.17316-.60309.64026-13.05627,5.97101-15.82593,7.68164-2.86121,1.76715-5.00781,3.86285-7.1944,5.27588-2.72095,1.75836-5.26379,4.14349-8.31305,5.83588-11.15656,6.19202-22.03497,6.51501-34.12415,9.51196-1.32635-2.28436,4.06372-3.2663,1.69391-6.37744-2.35443-2.72382-21.42413-20.22705-21.56335-21.75214ZM226.28382,69.18613c14.65735-10.8075,40.66425-8.53687,51.31995,7.1944,6.11151,13.07867,3.79327,28.63898-3.35742,40.76813-1.04407,1.04144-2.57489,2.60522-4.0528,2.90167-11.9801,2.40338-31.42169-2.08966-44.17535-.00146-2.25049-.41058-5.14948-4.76971-6.4491-6.73718-6.3999-13.37305-7.39398-23.63342-.47961-36.93115.12311-.23682,1.02051-1.2348,1.43884-1.91852,2.0329-1.39276,3.81964-3.84845,5.75549-5.27588ZM233.37556,163.095c-.8136-.1864-3.37378-2.28802-3.62775-3.12646-.3811-1.25842-.85608-24.15808-.60223-26.29004.15234-1.2793.40656-3.3974,1.65881-4.09552,1.09106-.60822,16.61584-.86035,26.55713-.92334h7.77197c.65771.01245,1.54187-.04053,2.4259-.07916l2.84998.07916c5.98065,1.36627,3.85608,11.73993,3.83698,16.78693-.01807,4.78918.01331,9.59955,0,14.38873-.60583,1.61304-1.04578,1.89758-2.6734,2.36224-2.25153.64276-36.33484,1.32422-38.19739.89746ZM231.08008,254.3215l-6.71478-6.23517c-20.05334-30.58423,16.85107-61.06744,42.21124-40.05286,26.26898,21.76758-1.68384,65.45947-35.49646,46.28802ZM346.86066,222.17282c-3.78308.78491-39.3653.59326-42.39789-.46582-2.43231-.84949-6.22003-4.12689-8.6333-5.75555-.64929-.43817-1.57599-1.32721-2.39807-1.91846l-3.0813-2.37024c-1.06354-.84784-2.09973-1.67639-3.15387-2.42603-23.55719-16.75201-43.05994-27.06909-70.6532-8.06213-22.7691,15.6839-15.28864,26.33527-48.29388,25.80829l-14.86835-.47968c-3.59082-1.45984-2.27191-8.85516.02063-10.29126,3.64325-2.28229,20.71857-3.60345,26.61383-5.52112,8.02972-2.61194,13.86816-7.43701,20.84845-11.52625,1.42493-.83478,2.71655-2.30273,2.87775-2.39813,18.21619-10.78058,32.43207-16.09686,54.19763-14.86835.1593.00897.32043-.0105.47961,0,32.82141,2.15411,42.63599,24.0816,68.88995,28.71381,5.68402,1.00293,17.68835-.06,22.00153,4.85773,2.72992,3.11267,1.47791,5.88831-2.44952,6.70319ZM194.14893,40.88821c1.80157-1.93524,5.63861-5.56146,7.67401-7.19434,26.96429-21.63214,69.86267-22.71771,96.40466,0,18.03162,15.43341,23.47504,37.55652,19.99951,60.52777-.3562,2.35419-6.20819,25.32513-7.52924,25.32513h-23.98126c10.33795-20.7677,9.61407-51.69141-13.90912-62.83093-36.11243-17.10107-79.35162,6.15405-68.74219,48.83777,1.08942,4.38281,4.09253,8.62659,4.95203,12.07465.09558.38348.67468,1.77008.47699,1.9151-1.13837.8349-17.82123-.98291-20.62128.48303-3.15961-.51636-2.36652-1.41687-4.31665-3.83698-8.29169-17.71075-10.68103-37.01227-3.83698-55.63654,2.92084-6.52148,8.53876-14.41083,13.4295-19.66467ZM64.44562,190.55496c-3.55469-.14996-36.19531-51.64105-42.08258-57.2901-2.84723-6.28528,11.49915-4.05719,15.42804-4.12555,7.79999-.13574,15.70142-.12891,23.50165,0,3.66492.06055,7.37115-.13312,11.03137,0,3.43231.12476,9.33411-.12756,12.47028.47961,5.31915,1.02979,5.24799,10.83179.95428,12.70508-6.42932,2.80499-29.26361.25507-37.58459,1.22791-2.03943.2384-4.1098,1.41699-2.74194,3.61029l25.74097,36.16833c1.36206,2.68335-5.06482,7.29419-6.71747,7.22443ZM136.56367,292.98966c-3.70673-.92157-38.32562-56.02686-45.05457-61.69019l-4.7962-6.71472c-1.11066-1.55823-2.24481-3.2171-3.35742-4.79626l-4.7962-6.71478c-1.52344-2.24512-8.88971-12.49231-8.8985-13.9649-.01056-1.76569,10.72113-8.73132,11.62567-10.1615,3.79327-5.99792-5.22223-13.27594-8.48273-17.60095-1.24628-1.65326-2.37848-4.89185-4.31659-6.23517-1.75836-2.99463-10.65051-11.63348-5.75549-13.90912h11.9906c4.60425,0,17.62775.87805,21.10352,0,3.33716-.84308,1.84503-8.80511,1.4389-11.51099.19891-3.36316-1.36145-8.82074,2.87775-10.07214l79.13812-.47961c4.85126,1.21033,2.51788,13.74969,2.39813,17.74609-.13385,4.46906.41272,9.00079-.47961,13.4295-.57623.69922-4.05444,2.2738-5.04639,2.4267l-67.51807,1.98859c-6.63525,2.25262,6.0238,12.73572,7.81506,14.76978.71484.81177,1.25824,2.83521,2.87775,3.35736,1.97473,3.47601,17.19116,18.49146,17.19556,19.98907.00488,1.65332-21.73541,19.2049-23.32611,23.06335-1.33661,3.24213,4.87927,8.65125,7.08978,11.1452,2.29926,2.59406,4.69122,5.28839,7.1944,7.67401,3.46051,6.94281,23.42194,23.09283,24.1427,28.84515.41571,3.3175-11.50073,20.30042-15.06006,19.41553ZM194.01832,375.18753l-44.22632-62.86871c-.27289-.5321-.05261-1.4024.35425-1.75903.99963-.87634,23.16711-1.54053,26.4726-1.58478,4.73792-.06348,14.19873-.69812,18.19769,1.03491,1.50018.65009,13.87048,12.8468,13.99487,13.82239.41827,3.28058-14.19257,14.51367-16.56799,17.55414-14.039,17.96924,10.79742,34.34332,30.44025,17.96997,2.02271-1.68604,8.34924-10.33594,9.62372-10.56207,4.21521-.74774,9.39227,8.26709,9.81769,12.23016,2.26062,21.05774-2.06305,17.60077-19.19861,17.99957h-14.38873c-6.91809-.22974-9.32043,1.60376-14.51941-3.83655ZM291.14545,394.24887c-2.13629,6.08582-23.42139,32.20129-28.88971,40.89136-3.24158,1.69238-4.62561,6.07202-6.71478,8.63324-2.31421,2.83716-4.6767,7.21826-8.94141,4.14227-9.26392-14.16309-20.0769-27.28668-29.9082-41.07343l-4.31665-6.23511c-1.1347-2.02338-6.12012-7.14453-2.06036-8.53516,1.21472-.41608,8.59418-.52203,15.75378-.5481,1.49939.09436,4.15405.04913,6.73511-.00812,3.11505.00085,5.67548.00281,6.9101-.02148,4.94598-.09735,9.92078.05103,14.86841,0,6.05096-.06244,12.21857-.45264,18.22577-.47968h12.94989c3.15936.19434,6.92944-1.15704,5.38806,3.23419ZM291.51288,378.54446c-5.08154-1.23944-10.26392-.21545-15.34802,0-3.90692.16553-16.73663,1.82062-19.1911-1.67255-1.7959-2.55597-1.5965-19.21265-.14984-22.1723.43945-.89911,6.43127-7.04028,7.49792-6.80634.64764.14209,7.51398,8.15271,9.22327,9.52942,3.35291,2.7005,6.76508,4.6601,10.77338,6.25336,3.19702,1.27081,4.77112,1.72162,8.15363,2.39813.94763.18951,1.92603.30383,2.87775.47961,3.6543.67493,12.18146.16699,13.4295,2.87775-2.59338,3.87512-3.69061,7.48505-8.63324,8.63324-2.77985.64581-5.80847.34619-8.63324.47968ZM301.8313,358.41367c-29.95032-.25336-42.30853-35.24554-40.34241-60.60999.46368-5.98193,1.94958-10.51917,9.14752-9.92499,3.16882.2616,2.46014,1.84235,2.6507,4.33319v6.44965c-.07672,2.08838-.15033,4.23114,0,6.50024.95398,14.39868,6.10858,30.54694,19.99567,37.79919,9.8714,5.15515,21.62976,1.5719,26.04834-8.54205,3.06628-2.20227,2.81738-7.35077,1.91852-10.55176-4.82654-17.18811-29.71136-5.33673-22.31677,4.33051,4.60168,6.01605,7.91235-4.07538,10.10687-4.33508,7.55042-.89355,1.60358,15.60187-9.2356,12.09399-7.41992-2.40131-7.45496-9.67041-7.33203-15.92639l2.39813-4.79626c4.26154-3.31757,3.97174-5.44531,10.80096-6.22571,34.51727-3.94458,35.29016,49.73645-3.8399,49.40546ZM327.68268,297.47818c-7.75732.68402-32.54333-.14319-37.61865,3.11719-2.69836,1.73346-4.16003,5.94775-7.18439,7.44415v-17.98596c0-1.01837-1.91321-5.78809-1.69305-6.0094.78467-.78882,6.46875-2.90424,8.07678-3.91406,14.78406-9.28424,22.43445-27.33215,38.70105-27.72711,6.90723-.16772,10.92023.43762,18.22571-.47961.46521-.05841.96655.02917,1.4389,0-.98529.82605-1.70752,2.57977-2.39813,3.35736-2.69879,3.03888-17.45581,17.41541-17.73828,19.95538-.57709,5.18933,16.84937,18.69104,8.29889,21.57788-1.10242.37219-6.29901.50464-8.10883.66418ZM349.44929,312.48239c-.12762.5835-5.78986,8.99109-6.61652,9.94592-5.04059,5.8219-1.58063.25128-5.27588-3.35742-.50934-1.34296-4.76074-8.86945-4.31787-9.11017.35748-.1944,6.46979-.00281,7.67523-.00269h7.1944c.80774.67737,1.91382-.0968,1.34064,2.52435ZM370.75995,282.47958c-.72382,2.32855-10.61285,15.55811-13.05878,15.48779l-6.23517-7.19434c-1.11835-1.64587-7.01654-9.76282-4.948-11.07172,1.30701-.82703,23.32562-.74811,24.18457.23285.78394.89539.34381,1.62402.05737,2.54541ZM429.9112,198.6727c-.20068,1.75916-17.39594,25.64844-19.93091,29.26941-1.57086,2.2439-3.63434,4.44415-5.27588,6.71472-3.78314,5.23297-19.65155,29.93597-23.98126,31.17566-4.30701.07898-8.64435-.10773-12.94983,0-2.18616.05475-13.93805,2.01465-13.25098-1.92798.54266-3.11432,30.21185-30.89856,30.09857-33.77954-.12592-3.20209-4.34845-3.72766-5.54333-7.01221-3.8233-3.72192-14.20282-9.68109-13.01794-15.36615l31.94043-40.02771c.79211-5.77856-14.24182-3.56012-18.23615-3.56696-3.69623-.00635-7.39764.13757-11.09149.27051l-8.57312.20911c-6.72644.01978-34.32056,1.10931-38.41248-.20294-3.14923-1.00989-2.25854-10.995-2.35571-13.70618-.21741-6.06689.4342-12.1839-.47961-18.22577.33862-1.16833,2.08276-3.64612,3.35736-3.83704,23.94751.87842,47.97754.47968,71.94379.47968h1.4389c4.99823,3.52985,1.7746,17.3009,4.5799,22.51892,2.10522,3.91577,9.85291,1.90088,13.64587,1.94196.88141.00952,1.76855.00696,2.65796,0h15.0882c3.51337.19635,5.20526-1.26843,5.75549,2.39813l-4.79626,6.71472c-2.33948,2.61584-15.69049,17.80756-15.87317,19.90192-.40582,4.6524,13.89606,10.49731,13.26166,16.05774ZM456.98359,161.2742c-2.34906,2.48779-4.24615,5.38727-6.23511,8.15363-1.57263,2.18732-10.03735,14.95911-11.01233,15.60706-3.82184,2.53967-6.01007-.29932-5.16791-4.21039.21014-.97571,7.63409-10.54095,8.98584-12.35596,1.04095-1.39764,3.02563-3.07507,4.31665-4.7962,2.3689-3.1582,13.20898-16.4494,13.90912-18.70538.08752-.2821.84351-.75897.43671-1.37836-.95605-1.45587-25.68762-1.45648-29.21423-1.49939-2.37866-.02899-4.77045-.35217-7.1944,0-3.00433-.7793-4.92822-.17859-7.67395-.47968-7.03894-.77173-7.64227-3.27283-6.71478-10.55176.23505-.51288,2.12616-1.87286,2.39813-1.91846,1.30658-.15771,2.62097-.26324,3.93811-.34839,5.66296-.21057,13.30212.37592,18.12463.34839,6.22266-.03552,12.48346-.07001,18.70538,0,3.24133.03644,21.52454-.5423,22.59198.67218.58557.66626.45807,1.84735.43005,2.68518-5.65253,9.40918-14.45477,19.02258-20.6239,28.77753ZM241.79175,243.84964c-16.76208-6.31824-6.59399-35.87213,13.05536-25.76471,14.29919,7.35541,5.31995,32.6911-13.05536,25.76471Z"/></g></svg>